<?xml version="1.0" encoding="utf-8" standalone="no"?>
<!DOCTYPE svg PUBLIC "-//W3C//DTD SVG 1.1//EN"
  "http://www.w3.org/Graphics/SVG/1.1/DTD/svg11.dtd">
<svg xmlns:xlink="http://www.w3.org/1999/xlink" width="419.0744pt" height="423.674688pt" viewBox="0 0 419.0744 423.674688" xmlns="http://www.w3.org/2000/svg" version="1.1">
 <metadata>
  <rdf:RDF xmlns:dc="http://purl.org/dc/elements/1.1/" xmlns:cc="http://creativecommons.org/ns#" xmlns:rdf="http://www.w3.org/1999/02/22-rdf-syntax-ns#">
   <cc:Work>
    <dc:type rdf:resource="http://purl.org/dc/dcmitype/StillImage"/>
    <dc:date>2024-06-29T16:50:07.796687</dc:date>
    <dc:format>image/svg+xml</dc:format>
    <dc:creator>
     <cc:Agent>
      <dc:title>Matplotlib v3.8.4, https://matplotlib.org/</dc:title>
     </cc:Agent>
    </dc:creator>
   </cc:Work>
  </rdf:RDF>
 </metadata>
 <defs>
  <style type="text/css">*{stroke-linejoin: round; stroke-linecap: butt}</style>
 </defs>
 <g id="figure_1">
  <g id="patch_1">
   <path d="M 0 423.674688 
L 419.0744 423.674688 
L 419.0744 0 
L 0 0 
z
" style="fill: #ffffff"/>
  </g>
  <g id="axes_1">
   <g id="patch_2">
    <path d="M 50.14375 114.705104 
L 340.8271 114.705104 
L 340.8271 20.798437 
L 50.14375 20.798437 
z
" style="fill: #ffffff"/>
   </g>
   <g id="PolyCollection_1">
    <defs>
     <path id="m8cd89cf2c7" d="M 63.35663 -348.76302 
L 63.35663 -313.238068 
L 72.46896 -313.238068 
L 81.581291 -313.238068 
L 90.693622 -313.238068 
L 99.805952 -313.238068 
L 108.918283 -313.238068 
L 118.030614 -313.238068 
L 127.142945 -313.238068 
L 136.255275 -313.238068 
L 145.367606 -313.238068 
L 154.479937 -313.238068 
L 163.592267 -313.238068 
L 172.704598 -313.238068 
L 181.816929 -313.238068 
L 190.92926 -313.238068 
L 200.04159 -313.238068 
L 209.153921 -313.238068 
L 218.266252 -313.238068 
L 227.378583 -313.238068 
L 236.490913 -313.238068 
L 245.603244 -313.238068 
L 254.715575 -313.238068 
L 263.827905 -313.238068 
L 272.940236 -313.238068 
L 282.052567 -313.238068 
L 291.164898 -313.238068 
L 300.277228 -313.238068 
L 309.389559 -313.238068 
L 318.50189 -313.238068 
L 327.61422 -313.238068 
L 327.61422 -374.362438 
L 327.61422 -374.362438 
L 318.50189 -374.742585 
L 309.389559 -378.640213 
L 300.277228 -381.165861 
L 291.164898 -382.917222 
L 282.052567 -380.345244 
L 272.940236 -382.61012 
L 263.827905 -381.746497 
L 254.715575 -379.583863 
L 245.603244 -373.007855 
L 236.490913 -367.010541 
L 227.378583 -362.12171 
L 218.266252 -368.963026 
L 209.153921 -371.234799 
L 200.04159 -369.621874 
L 190.92926 -369.582487 
L 181.816929 -373.938164 
L 172.704598 -379.75301 
L 163.592267 -381.211592 
L 154.479937 -378.465162 
L 145.367606 -374.574634 
L 136.255275 -380.002916 
L 127.142945 -385.074861 
L 118.030614 -389.262605 
L 108.918283 -384.92794 
L 99.805952 -389.770306 
L 90.693622 -380.347313 
L 81.581291 -371.930314 
L 72.46896 -371.509053 
L 63.35663 -348.76302 
z
" style="stroke: #2ca02c; stroke-opacity: 0.05"/>
    </defs>
    <g clip-path="url(#p2e35b78b57)">
     <use xlink:href="#m8cd89cf2c7" x="0" y="423.674688" style="fill: #2ca02c; fill-opacity: 0.05; stroke: #2ca02c; stroke-opacity: 0.05"/>
    </g>
   </g>
   <g id="PolyCollection_2">
    <g clip-path="url(#p2e35b78b57)">
     <use xlink:href="#m8cd89cf2c7" x="0" y="423.674688" style="fill: #2ca02c; fill-opacity: 0.05; stroke: #2ca02c; stroke-opacity: 0.05"/>
    </g>
   </g>
   <g id="PolyCollection_3">
    <defs>
     <path id="mc634a24721" d="M 63.35663 -340.790443 
L 63.35663 -313.238068 
L 72.46896 -313.238068 
L 81.581291 -313.238068 
L 90.693622 -313.238068 
L 99.805952 -313.238068 
L 108.918283 -313.238068 
L 118.030614 -313.238068 
L 127.142945 -313.238068 
L 136.255275 -313.238068 
L 145.367606 -313.238068 
L 154.479937 -313.238068 
L 163.592267 -313.238068 
L 172.704598 -313.238068 
L 181.816929 -313.238068 
L 190.92926 -313.238068 
L 200.04159 -313.238068 
L 209.153921 -313.238068 
L 218.266252 -313.238068 
L 227.378583 -313.238068 
L 236.490913 -313.238068 
L 245.603244 -313.238068 
L 254.715575 -313.238068 
L 263.827905 -313.238068 
L 272.940236 -313.238068 
L 282.052567 -313.238068 
L 291.164898 -313.238068 
L 300.277228 -313.238068 
L 309.389559 -313.238068 
L 318.50189 -313.238068 
L 327.61422 -313.238068 
L 327.61422 -365.684809 
L 327.61422 -365.684809 
L 318.50189 -366.804151 
L 309.389559 -371.806462 
L 300.277228 -376.372813 
L 291.164898 -375.646526 
L 282.052567 -373.175125 
L 272.940236 -375.831834 
L 263.827905 -373.748072 
L 254.715575 -371.438807 
L 245.603244 -365.49138 
L 236.490913 -359.36877 
L 227.378583 -355.13394 
L 218.266252 -364.355059 
L 209.153921 -365.559167 
L 200.04159 -363.911828 
L 190.92926 -362.591492 
L 181.816929 -366.419811 
L 172.704598 -366.780789 
L 163.592267 -372.349937 
L 154.479937 -371.783084 
L 145.367606 -369.328042 
L 136.255275 -373.223726 
L 127.142945 -375.697833 
L 118.030614 -380.313038 
L 108.918283 -375.824457 
L 99.805952 -380.932847 
L 90.693622 -375.445447 
L 81.581291 -366.689263 
L 72.46896 -362.551191 
L 63.35663 -340.790443 
z
" style="stroke: #2ca02c; stroke-opacity: 0.05"/>
    </defs>
    <g clip-path="url(#p2e35b78b57)">
     <use xlink:href="#mc634a24721" x="0" y="423.674688" style="fill: #2ca02c; fill-opacity: 0.05; stroke: #2ca02c; stroke-opacity: 0.05"/>
    </g>
   </g>
   <g id="PolyCollection_4">
    <defs>
     <path id="m3736206ef5" d="M 63.35663 -356.735598 
L 63.35663 -313.238068 
L 72.46896 -313.238068 
L 81.581291 -313.238068 
L 90.693622 -313.238068 
L 99.805952 -313.238068 
L 108.918283 -313.238068 
L 118.030614 -313.238068 
L 127.142945 -313.238068 
L 136.255275 -313.238068 
L 145.367606 -313.238068 
L 154.479937 -313.238068 
L 163.592267 -313.238068 
L 172.704598 -313.238068 
L 181.816929 -313.238068 
L 190.92926 -313.238068 
L 200.04159 -313.238068 
L 209.153921 -313.238068 
L 218.266252 -313.238068 
L 227.378583 -313.238068 
L 236.490913 -313.238068 
L 245.603244 -313.238068 
L 254.715575 -313.238068 
L 263.827905 -313.238068 
L 272.940236 -313.238068 
L 282.052567 -313.238068 
L 291.164898 -313.238068 
L 300.277228 -313.238068 
L 309.389559 -313.238068 
L 318.50189 -313.238068 
L 327.61422 -313.238068 
L 327.61422 -383.040066 
L 327.61422 -383.040066 
L 318.50189 -382.681018 
L 309.389559 -385.473964 
L 300.277228 -385.958909 
L 291.164898 -390.187918 
L 282.052567 -387.515362 
L 272.940236 -389.388406 
L 263.827905 -389.744922 
L 254.715575 -387.728919 
L 245.603244 -380.52433 
L 236.490913 -374.652311 
L 227.378583 -369.109481 
L 218.266252 -373.570993 
L 209.153921 -376.910432 
L 200.04159 -375.331921 
L 190.92926 -376.573483 
L 181.816929 -381.456518 
L 172.704598 -392.725231 
L 163.592267 -390.073247 
L 154.479937 -385.14724 
L 145.367606 -379.821226 
L 136.255275 -386.782105 
L 127.142945 -394.451889 
L 118.030614 -398.212173 
L 108.918283 -394.031423 
L 99.805952 -398.607765 
L 90.693622 -385.249178 
L 81.581291 -377.171365 
L 72.46896 -380.466914 
L 63.35663 -356.735598 
z
" style="stroke: #2ca02c; stroke-opacity: 0.05"/>
    </defs>
    <g clip-path="url(#p2e35b78b57)">
     <use xlink:href="#m3736206ef5" x="0" y="423.674688" style="fill: #2ca02c; fill-opacity: 0.05; stroke: #2ca02c; stroke-opacity: 0.05"/>
    </g>
   </g>
   <g id="PolyCollection_5"/>
   <g id="matplotlib.axis_1">
    <g id="xtick_1">
     <g id="line2d_1">
      <defs>
       <path id="m8aa39fc3f8" d="M 0 0 
L 0 3.5 
" style="stroke: #000000; stroke-width: 0.8"/>
      </defs>
      <g>
       <use xlink:href="#m8aa39fc3f8" x="63.35663" y="114.705104" style="stroke: #000000; stroke-width: 0.8"/>
      </g>
     </g>
     <g id="text_1">
      <!-- 0.00 -->
      <g transform="translate(52.223817 129.303542) scale(0.1 -0.1)">
       <defs>
        <path id="DejaVuSans-30" d="M 2034 4250 
Q 1547 4250 1301 3770 
Q 1056 3291 1056 2328 
Q 1056 1369 1301 889 
Q 1547 409 2034 409 
Q 2525 409 2770 889 
Q 3016 1369 3016 2328 
Q 3016 3291 2770 3770 
Q 2525 4250 2034 4250 
z
M 2034 4750 
Q 2819 4750 3233 4129 
Q 3647 3509 3647 2328 
Q 3647 1150 3233 529 
Q 2819 -91 2034 -91 
Q 1250 -91 836 529 
Q 422 1150 422 2328 
Q 422 3509 836 4129 
Q 1250 4750 2034 4750 
z
" transform="scale(0.015625)"/>
        <path id="DejaVuSans-2e" d="M 684 794 
L 1344 794 
L 1344 0 
L 684 0 
L 684 794 
z
" transform="scale(0.015625)"/>
       </defs>
       <use xlink:href="#DejaVuSans-30"/>
       <use xlink:href="#DejaVuSans-2e" x="63.623047"/>
       <use xlink:href="#DejaVuSans-30" x="95.410156"/>
       <use xlink:href="#DejaVuSans-30" x="159.033203"/>
      </g>
     </g>
    </g>
    <g id="xtick_2">
     <g id="line2d_2">
      <g>
       <use xlink:href="#m8aa39fc3f8" x="96.388828" y="114.705104" style="stroke: #000000; stroke-width: 0.8"/>
      </g>
     </g>
     <g id="text_2">
      <!-- 0.25 -->
      <g transform="translate(85.256016 129.303542) scale(0.1 -0.1)">
       <defs>
        <path id="DejaVuSans-32" d="M 1228 531 
L 3431 531 
L 3431 0 
L 469 0 
L 469 531 
Q 828 903 1448 1529 
Q 2069 2156 2228 2338 
Q 2531 2678 2651 2914 
Q 2772 3150 2772 3378 
Q 2772 3750 2511 3984 
Q 2250 4219 1831 4219 
Q 1534 4219 1204 4116 
Q 875 4013 500 3803 
L 500 4441 
Q 881 4594 1212 4672 
Q 1544 4750 1819 4750 
Q 2544 4750 2975 4387 
Q 3406 4025 3406 3419 
Q 3406 3131 3298 2873 
Q 3191 2616 2906 2266 
Q 2828 2175 2409 1742 
Q 1991 1309 1228 531 
z
" transform="scale(0.015625)"/>
        <path id="DejaVuSans-35" d="M 691 4666 
L 3169 4666 
L 3169 4134 
L 1269 4134 
L 1269 2991 
Q 1406 3038 1543 3061 
Q 1681 3084 1819 3084 
Q 2600 3084 3056 2656 
Q 3513 2228 3513 1497 
Q 3513 744 3044 326 
Q 2575 -91 1722 -91 
Q 1428 -91 1123 -41 
Q 819 9 494 109 
L 494 744 
Q 775 591 1075 516 
Q 1375 441 1709 441 
Q 2250 441 2565 725 
Q 2881 1009 2881 1497 
Q 2881 1984 2565 2268 
Q 2250 2553 1709 2553 
Q 1456 2553 1204 2497 
Q 953 2441 691 2322 
L 691 4666 
z
" transform="scale(0.015625)"/>
       </defs>
       <use xlink:href="#DejaVuSans-30"/>
       <use xlink:href="#DejaVuSans-2e" x="63.623047"/>
       <use xlink:href="#DejaVuSans-32" x="95.410156"/>
       <use xlink:href="#DejaVuSans-35" x="159.033203"/>
      </g>
     </g>
    </g>
    <g id="xtick_3">
     <g id="line2d_3">
      <g>
       <use xlink:href="#m8aa39fc3f8" x="129.421027" y="114.705104" style="stroke: #000000; stroke-width: 0.8"/>
      </g>
     </g>
     <g id="text_3">
      <!-- 0.50 -->
      <g transform="translate(118.288215 129.303542) scale(0.1 -0.1)">
       <use xlink:href="#DejaVuSans-30"/>
       <use xlink:href="#DejaVuSans-2e" x="63.623047"/>
       <use xlink:href="#DejaVuSans-35" x="95.410156"/>
       <use xlink:href="#DejaVuSans-30" x="159.033203"/>
      </g>
     </g>
    </g>
    <g id="xtick_4">
     <g id="line2d_4">
      <g>
       <use xlink:href="#m8aa39fc3f8" x="162.453226" y="114.705104" style="stroke: #000000; stroke-width: 0.8"/>
      </g>
     </g>
     <g id="text_4">
      <!-- 0.75 -->
      <g transform="translate(151.320414 129.303542) scale(0.1 -0.1)">
       <defs>
        <path id="DejaVuSans-37" d="M 525 4666 
L 3525 4666 
L 3525 4397 
L 1831 0 
L 1172 0 
L 2766 4134 
L 525 4134 
L 525 4666 
z
" transform="scale(0.015625)"/>
       </defs>
       <use xlink:href="#DejaVuSans-30"/>
       <use xlink:href="#DejaVuSans-2e" x="63.623047"/>
       <use xlink:href="#DejaVuSans-37" x="95.410156"/>
       <use xlink:href="#DejaVuSans-35" x="159.033203"/>
      </g>
     </g>
    </g>
    <g id="xtick_5">
     <g id="line2d_5">
      <g>
       <use xlink:href="#m8aa39fc3f8" x="195.485425" y="114.705104" style="stroke: #000000; stroke-width: 0.8"/>
      </g>
     </g>
     <g id="text_5">
      <!-- 1.00 -->
      <g transform="translate(184.352613 129.303542) scale(0.1 -0.1)">
       <defs>
        <path id="DejaVuSans-31" d="M 794 531 
L 1825 531 
L 1825 4091 
L 703 3866 
L 703 4441 
L 1819 4666 
L 2450 4666 
L 2450 531 
L 3481 531 
L 3481 0 
L 794 0 
L 794 531 
z
" transform="scale(0.015625)"/>
       </defs>
       <use xlink:href="#DejaVuSans-31"/>
       <use xlink:href="#DejaVuSans-2e" x="63.623047"/>
       <use xlink:href="#DejaVuSans-30" x="95.410156"/>
       <use xlink:href="#DejaVuSans-30" x="159.033203"/>
      </g>
     </g>
    </g>
    <g id="xtick_6">
     <g id="line2d_6">
      <g>
       <use xlink:href="#m8aa39fc3f8" x="228.517624" y="114.705104" style="stroke: #000000; stroke-width: 0.8"/>
      </g>
     </g>
     <g id="text_6">
      <!-- 1.25 -->
      <g transform="translate(217.384811 129.303542) scale(0.1 -0.1)">
       <use xlink:href="#DejaVuSans-31"/>
       <use xlink:href="#DejaVuSans-2e" x="63.623047"/>
       <use xlink:href="#DejaVuSans-32" x="95.410156"/>
       <use xlink:href="#DejaVuSans-35" x="159.033203"/>
      </g>
     </g>
    </g>
    <g id="xtick_7">
     <g id="line2d_7">
      <g>
       <use xlink:href="#m8aa39fc3f8" x="261.549823" y="114.705104" style="stroke: #000000; stroke-width: 0.8"/>
      </g>
     </g>
     <g id="text_7">
      <!-- 1.50 -->
      <g transform="translate(250.41701 129.303542) scale(0.1 -0.1)">
       <use xlink:href="#DejaVuSans-31"/>
       <use xlink:href="#DejaVuSans-2e" x="63.623047"/>
       <use xlink:href="#DejaVuSans-35" x="95.410156"/>
       <use xlink:href="#DejaVuSans-30" x="159.033203"/>
      </g>
     </g>
    </g>
    <g id="xtick_8">
     <g id="line2d_8">
      <g>
       <use xlink:href="#m8aa39fc3f8" x="294.582022" y="114.705104" style="stroke: #000000; stroke-width: 0.8"/>
      </g>
     </g>
     <g id="text_8">
      <!-- 1.75 -->
      <g transform="translate(283.449209 129.303542) scale(0.1 -0.1)">
       <use xlink:href="#DejaVuSans-31"/>
       <use xlink:href="#DejaVuSans-2e" x="63.623047"/>
       <use xlink:href="#DejaVuSans-37" x="95.410156"/>
       <use xlink:href="#DejaVuSans-35" x="159.033203"/>
      </g>
     </g>
    </g>
    <g id="xtick_9">
     <g id="line2d_9">
      <g>
       <use xlink:href="#m8aa39fc3f8" x="327.61422" y="114.705104" style="stroke: #000000; stroke-width: 0.8"/>
      </g>
     </g>
     <g id="text_9">
      <!-- 2.00 -->
      <g transform="translate(316.481408 129.303542) scale(0.1 -0.1)">
       <use xlink:href="#DejaVuSans-32"/>
       <use xlink:href="#DejaVuSans-2e" x="63.623047"/>
       <use xlink:href="#DejaVuSans-30" x="95.410156"/>
       <use xlink:href="#DejaVuSans-30" x="159.033203"/>
      </g>
     </g>
    </g>
   </g>
   <g id="matplotlib.axis_2">
    <g id="ytick_1">
     <g id="line2d_10">
      <defs>
       <path id="m4a6f6e9084" d="M 0 0 
L -3.5 0 
" style="stroke: #000000; stroke-width: 0.8"/>
      </defs>
      <g>
       <use xlink:href="#m4a6f6e9084" x="50.14375" y="110.436619" style="stroke: #000000; stroke-width: 0.8"/>
      </g>
     </g>
     <g id="text_10">
      <!-- 0.00 -->
      <g transform="translate(20.878125 114.235838) scale(0.1 -0.1)">
       <use xlink:href="#DejaVuSans-30"/>
       <use xlink:href="#DejaVuSans-2e" x="63.623047"/>
       <use xlink:href="#DejaVuSans-30" x="95.410156"/>
       <use xlink:href="#DejaVuSans-30" x="159.033203"/>
      </g>
     </g>
    </g>
    <g id="ytick_2">
     <g id="line2d_11">
      <g>
       <use xlink:href="#m4a6f6e9084" x="50.14375" y="72.635716" style="stroke: #000000; stroke-width: 0.8"/>
      </g>
     </g>
     <g id="text_11">
      <!-- 0.02 -->
      <g transform="translate(20.878125 76.434934) scale(0.1 -0.1)">
       <use xlink:href="#DejaVuSans-30"/>
       <use xlink:href="#DejaVuSans-2e" x="63.623047"/>
       <use xlink:href="#DejaVuSans-30" x="95.410156"/>
       <use xlink:href="#DejaVuSans-32" x="159.033203"/>
      </g>
     </g>
    </g>
    <g id="ytick_3">
     <g id="line2d_12">
      <g>
       <use xlink:href="#m4a6f6e9084" x="50.14375" y="34.834812" style="stroke: #000000; stroke-width: 0.8"/>
      </g>
     </g>
     <g id="text_12">
      <!-- 0.04 -->
      <g transform="translate(20.878125 38.634031) scale(0.1 -0.1)">
       <defs>
        <path id="DejaVuSans-34" d="M 2419 4116 
L 825 1625 
L 2419 1625 
L 2419 4116 
z
M 2253 4666 
L 3047 4666 
L 3047 1625 
L 3713 1625 
L 3713 1100 
L 3047 1100 
L 3047 0 
L 2419 0 
L 2419 1100 
L 313 1100 
L 313 1709 
L 2253 4666 
z
" transform="scale(0.015625)"/>
       </defs>
       <use xlink:href="#DejaVuSans-30"/>
       <use xlink:href="#DejaVuSans-2e" x="63.623047"/>
       <use xlink:href="#DejaVuSans-30" x="95.410156"/>
       <use xlink:href="#DejaVuSans-34" x="159.033203"/>
      </g>
     </g>
    </g>
    <g id="text_13">
     <!-- occp_norm -->
     <g transform="translate(14.520313 95.050208) rotate(-90) scale(0.1 -0.1)">
      <defs>
       <path id="DejaVuSans-6f" d="M 1959 3097 
Q 1497 3097 1228 2736 
Q 959 2375 959 1747 
Q 959 1119 1226 758 
Q 1494 397 1959 397 
Q 2419 397 2687 759 
Q 2956 1122 2956 1747 
Q 2956 2369 2687 2733 
Q 2419 3097 1959 3097 
z
M 1959 3584 
Q 2709 3584 3137 3096 
Q 3566 2609 3566 1747 
Q 3566 888 3137 398 
Q 2709 -91 1959 -91 
Q 1206 -91 779 398 
Q 353 888 353 1747 
Q 353 2609 779 3096 
Q 1206 3584 1959 3584 
z
" transform="scale(0.015625)"/>
       <path id="DejaVuSans-63" d="M 3122 3366 
L 3122 2828 
Q 2878 2963 2633 3030 
Q 2388 3097 2138 3097 
Q 1578 3097 1268 2742 
Q 959 2388 959 1747 
Q 959 1106 1268 751 
Q 1578 397 2138 397 
Q 2388 397 2633 464 
Q 2878 531 3122 666 
L 3122 134 
Q 2881 22 2623 -34 
Q 2366 -91 2075 -91 
Q 1284 -91 818 406 
Q 353 903 353 1747 
Q 353 2603 823 3093 
Q 1294 3584 2113 3584 
Q 2378 3584 2631 3529 
Q 2884 3475 3122 3366 
z
" transform="scale(0.015625)"/>
       <path id="DejaVuSans-70" d="M 1159 525 
L 1159 -1331 
L 581 -1331 
L 581 3500 
L 1159 3500 
L 1159 2969 
Q 1341 3281 1617 3432 
Q 1894 3584 2278 3584 
Q 2916 3584 3314 3078 
Q 3713 2572 3713 1747 
Q 3713 922 3314 415 
Q 2916 -91 2278 -91 
Q 1894 -91 1617 61 
Q 1341 213 1159 525 
z
M 3116 1747 
Q 3116 2381 2855 2742 
Q 2594 3103 2138 3103 
Q 1681 3103 1420 2742 
Q 1159 2381 1159 1747 
Q 1159 1113 1420 752 
Q 1681 391 2138 391 
Q 2594 391 2855 752 
Q 3116 1113 3116 1747 
z
" transform="scale(0.015625)"/>
       <path id="DejaVuSans-5f" d="M 3263 -1063 
L 3263 -1509 
L -63 -1509 
L -63 -1063 
L 3263 -1063 
z
" transform="scale(0.015625)"/>
       <path id="DejaVuSans-6e" d="M 3513 2113 
L 3513 0 
L 2938 0 
L 2938 2094 
Q 2938 2591 2744 2837 
Q 2550 3084 2163 3084 
Q 1697 3084 1428 2787 
Q 1159 2491 1159 1978 
L 1159 0 
L 581 0 
L 581 3500 
L 1159 3500 
L 1159 2956 
Q 1366 3272 1645 3428 
Q 1925 3584 2291 3584 
Q 2894 3584 3203 3211 
Q 3513 2838 3513 2113 
z
" transform="scale(0.015625)"/>
       <path id="DejaVuSans-72" d="M 2631 2963 
Q 2534 3019 2420 3045 
Q 2306 3072 2169 3072 
Q 1681 3072 1420 2755 
Q 1159 2438 1159 1844 
L 1159 0 
L 581 0 
L 581 3500 
L 1159 3500 
L 1159 2956 
Q 1341 3275 1631 3429 
Q 1922 3584 2338 3584 
Q 2397 3584 2469 3576 
Q 2541 3569 2628 3553 
L 2631 2963 
z
" transform="scale(0.015625)"/>
       <path id="DejaVuSans-6d" d="M 3328 2828 
Q 3544 3216 3844 3400 
Q 4144 3584 4550 3584 
Q 5097 3584 5394 3201 
Q 5691 2819 5691 2113 
L 5691 0 
L 5113 0 
L 5113 2094 
Q 5113 2597 4934 2840 
Q 4756 3084 4391 3084 
Q 3944 3084 3684 2787 
Q 3425 2491 3425 1978 
L 3425 0 
L 2847 0 
L 2847 2094 
Q 2847 2600 2669 2842 
Q 2491 3084 2119 3084 
Q 1678 3084 1418 2786 
Q 1159 2488 1159 1978 
L 1159 0 
L 581 0 
L 581 3500 
L 1159 3500 
L 1159 2956 
Q 1356 3278 1631 3431 
Q 1906 3584 2284 3584 
Q 2666 3584 2933 3390 
Q 3200 3197 3328 2828 
z
" transform="scale(0.015625)"/>
      </defs>
      <use xlink:href="#DejaVuSans-6f"/>
      <use xlink:href="#DejaVuSans-63" x="61.181641"/>
      <use xlink:href="#DejaVuSans-63" x="116.162109"/>
      <use xlink:href="#DejaVuSans-70" x="171.142578"/>
      <use xlink:href="#DejaVuSans-5f" x="234.619141"/>
      <use xlink:href="#DejaVuSans-6e" x="284.619141"/>
      <use xlink:href="#DejaVuSans-6f" x="347.998047"/>
      <use xlink:href="#DejaVuSans-72" x="409.179688"/>
      <use xlink:href="#DejaVuSans-6d" x="448.542969"/>
     </g>
    </g>
   </g>
   <g id="line2d_13">
    <path d="M 63.35663 74.911667 
L 72.46896 52.165635 
L 81.581291 51.744374 
L 90.693622 43.327375 
L 99.805952 33.904382 
L 108.918283 38.746748 
L 118.030614 34.412082 
L 127.142945 38.599827 
L 136.255275 43.671772 
L 145.367606 49.100054 
L 154.479937 45.209526 
L 163.592267 42.463095 
L 172.704598 43.921678 
L 181.816929 49.736523 
L 190.92926 54.0922 
L 200.04159 54.052813 
L 209.153921 52.439888 
L 218.266252 54.711661 
L 227.378583 61.552977 
L 236.490913 56.664147 
L 245.603244 50.666833 
L 254.715575 44.090824 
L 263.827905 41.928191 
L 272.940236 41.064567 
L 282.052567 43.329444 
L 291.164898 40.757465 
L 300.277228 42.508826 
L 309.389559 45.034474 
L 318.50189 48.932103 
L 327.61422 49.31225 
" clip-path="url(#p2e35b78b57)" style="fill: none; stroke: #2ca02c; stroke-width: 1.5; stroke-linecap: square"/>
   </g>
   <g id="LineCollection_1">
    <path d="M 63.35663 82.884245 
L 63.35663 66.93909 
" clip-path="url(#p2e35b78b57)" style="fill: none; stroke: #2ca02c; stroke-width: 1.5; stroke-linecap: square"/>
    <path d="M 72.46896 61.123497 
L 72.46896 43.207773 
" clip-path="url(#p2e35b78b57)" style="fill: none; stroke: #2ca02c; stroke-width: 1.5; stroke-linecap: square"/>
    <path d="M 81.581291 56.985424 
L 81.581291 46.503323 
" clip-path="url(#p2e35b78b57)" style="fill: none; stroke: #2ca02c; stroke-width: 1.5; stroke-linecap: square"/>
    <path d="M 90.693622 48.22924 
L 90.693622 38.42551 
" clip-path="url(#p2e35b78b57)" style="fill: none; stroke: #2ca02c; stroke-width: 1.5; stroke-linecap: square"/>
    <path d="M 99.805952 42.741841 
L 99.805952 25.066922 
" clip-path="url(#p2e35b78b57)" style="fill: none; stroke: #2ca02c; stroke-width: 1.5; stroke-linecap: square"/>
    <path d="M 108.918283 47.850231 
L 108.918283 29.643265 
" clip-path="url(#p2e35b78b57)" style="fill: none; stroke: #2ca02c; stroke-width: 1.5; stroke-linecap: square"/>
    <path d="M 118.030614 43.36165 
L 118.030614 25.462515 
" clip-path="url(#p2e35b78b57)" style="fill: none; stroke: #2ca02c; stroke-width: 1.5; stroke-linecap: square"/>
    <path d="M 127.142945 47.976855 
L 127.142945 29.222798 
" clip-path="url(#p2e35b78b57)" style="fill: none; stroke: #2ca02c; stroke-width: 1.5; stroke-linecap: square"/>
    <path d="M 136.255275 50.450961 
L 136.255275 36.892582 
" clip-path="url(#p2e35b78b57)" style="fill: none; stroke: #2ca02c; stroke-width: 1.5; stroke-linecap: square"/>
    <path d="M 145.367606 54.346646 
L 145.367606 43.853462 
" clip-path="url(#p2e35b78b57)" style="fill: none; stroke: #2ca02c; stroke-width: 1.5; stroke-linecap: square"/>
    <path d="M 154.479937 51.891603 
L 154.479937 38.527448 
" clip-path="url(#p2e35b78b57)" style="fill: none; stroke: #2ca02c; stroke-width: 1.5; stroke-linecap: square"/>
    <path d="M 163.592267 51.32475 
L 163.592267 33.601441 
" clip-path="url(#p2e35b78b57)" style="fill: none; stroke: #2ca02c; stroke-width: 1.5; stroke-linecap: square"/>
    <path d="M 172.704598 56.893898 
L 172.704598 30.949457 
" clip-path="url(#p2e35b78b57)" style="fill: none; stroke: #2ca02c; stroke-width: 1.5; stroke-linecap: square"/>
    <path d="M 181.816929 57.254876 
L 181.816929 42.21817 
" clip-path="url(#p2e35b78b57)" style="fill: none; stroke: #2ca02c; stroke-width: 1.5; stroke-linecap: square"/>
    <path d="M 190.92926 61.083195 
L 190.92926 47.101205 
" clip-path="url(#p2e35b78b57)" style="fill: none; stroke: #2ca02c; stroke-width: 1.5; stroke-linecap: square"/>
    <path d="M 200.04159 59.76286 
L 200.04159 48.342767 
" clip-path="url(#p2e35b78b57)" style="fill: none; stroke: #2ca02c; stroke-width: 1.5; stroke-linecap: square"/>
    <path d="M 209.153921 58.11552 
L 209.153921 46.764256 
" clip-path="url(#p2e35b78b57)" style="fill: none; stroke: #2ca02c; stroke-width: 1.5; stroke-linecap: square"/>
    <path d="M 218.266252 59.319629 
L 218.266252 50.103694 
" clip-path="url(#p2e35b78b57)" style="fill: none; stroke: #2ca02c; stroke-width: 1.5; stroke-linecap: square"/>
    <path d="M 227.378583 68.540748 
L 227.378583 54.565207 
" clip-path="url(#p2e35b78b57)" style="fill: none; stroke: #2ca02c; stroke-width: 1.5; stroke-linecap: square"/>
    <path d="M 236.490913 64.305918 
L 236.490913 49.022376 
" clip-path="url(#p2e35b78b57)" style="fill: none; stroke: #2ca02c; stroke-width: 1.5; stroke-linecap: square"/>
    <path d="M 245.603244 58.183308 
L 245.603244 43.150358 
" clip-path="url(#p2e35b78b57)" style="fill: none; stroke: #2ca02c; stroke-width: 1.5; stroke-linecap: square"/>
    <path d="M 254.715575 52.23588 
L 254.715575 35.945768 
" clip-path="url(#p2e35b78b57)" style="fill: none; stroke: #2ca02c; stroke-width: 1.5; stroke-linecap: square"/>
    <path d="M 263.827905 49.926616 
L 263.827905 33.929766 
" clip-path="url(#p2e35b78b57)" style="fill: none; stroke: #2ca02c; stroke-width: 1.5; stroke-linecap: square"/>
    <path d="M 272.940236 47.842853 
L 272.940236 34.286281 
" clip-path="url(#p2e35b78b57)" style="fill: none; stroke: #2ca02c; stroke-width: 1.5; stroke-linecap: square"/>
    <path d="M 282.052567 50.499563 
L 282.052567 36.159325 
" clip-path="url(#p2e35b78b57)" style="fill: none; stroke: #2ca02c; stroke-width: 1.5; stroke-linecap: square"/>
    <path d="M 291.164898 48.028162 
L 291.164898 33.486769 
" clip-path="url(#p2e35b78b57)" style="fill: none; stroke: #2ca02c; stroke-width: 1.5; stroke-linecap: square"/>
    <path d="M 300.277228 47.301874 
L 300.277228 37.715778 
" clip-path="url(#p2e35b78b57)" style="fill: none; stroke: #2ca02c; stroke-width: 1.5; stroke-linecap: square"/>
    <path d="M 309.389559 51.868225 
L 309.389559 38.200723 
" clip-path="url(#p2e35b78b57)" style="fill: none; stroke: #2ca02c; stroke-width: 1.5; stroke-linecap: square"/>
    <path d="M 318.50189 56.870536 
L 318.50189 40.993669 
" clip-path="url(#p2e35b78b57)" style="fill: none; stroke: #2ca02c; stroke-width: 1.5; stroke-linecap: square"/>
    <path d="M 327.61422 57.989878 
L 327.61422 40.634621 
" clip-path="url(#p2e35b78b57)" style="fill: none; stroke: #2ca02c; stroke-width: 1.5; stroke-linecap: square"/>
   </g>
   <g id="line2d_14">
    <defs>
     <path id="mbc6512a484" d="M 1 0 
L -1 -0 
" style="stroke: #2ca02c"/>
    </defs>
    <g clip-path="url(#p2e35b78b57)">
     <use xlink:href="#mbc6512a484" x="63.35663" y="82.884245" style="fill: #2ca02c; stroke: #2ca02c"/>
     <use xlink:href="#mbc6512a484" x="72.46896" y="61.123497" style="fill: #2ca02c; stroke: #2ca02c"/>
     <use xlink:href="#mbc6512a484" x="81.581291" y="56.985424" style="fill: #2ca02c; stroke: #2ca02c"/>
     <use xlink:href="#mbc6512a484" x="90.693622" y="48.22924" style="fill: #2ca02c; stroke: #2ca02c"/>
     <use xlink:href="#mbc6512a484" x="99.805952" y="42.741841" style="fill: #2ca02c; stroke: #2ca02c"/>
     <use xlink:href="#mbc6512a484" x="108.918283" y="47.850231" style="fill: #2ca02c; stroke: #2ca02c"/>
     <use xlink:href="#mbc6512a484" x="118.030614" y="43.36165" style="fill: #2ca02c; stroke: #2ca02c"/>
     <use xlink:href="#mbc6512a484" x="127.142945" y="47.976855" style="fill: #2ca02c; stroke: #2ca02c"/>
     <use xlink:href="#mbc6512a484" x="136.255275" y="50.450961" style="fill: #2ca02c; stroke: #2ca02c"/>
     <use xlink:href="#mbc6512a484" x="145.367606" y="54.346646" style="fill: #2ca02c; stroke: #2ca02c"/>
     <use xlink:href="#mbc6512a484" x="154.479937" y="51.891603" style="fill: #2ca02c; stroke: #2ca02c"/>
     <use xlink:href="#mbc6512a484" x="163.592267" y="51.32475" style="fill: #2ca02c; stroke: #2ca02c"/>
     <use xlink:href="#mbc6512a484" x="172.704598" y="56.893898" style="fill: #2ca02c; stroke: #2ca02c"/>
     <use xlink:href="#mbc6512a484" x="181.816929" y="57.254876" style="fill: #2ca02c; stroke: #2ca02c"/>
     <use xlink:href="#mbc6512a484" x="190.92926" y="61.083195" style="fill: #2ca02c; stroke: #2ca02c"/>
     <use xlink:href="#mbc6512a484" x="200.04159" y="59.76286" style="fill: #2ca02c; stroke: #2ca02c"/>
     <use xlink:href="#mbc6512a484" x="209.153921" y="58.11552" style="fill: #2ca02c; stroke: #2ca02c"/>
     <use xlink:href="#mbc6512a484" x="218.266252" y="59.319629" style="fill: #2ca02c; stroke: #2ca02c"/>
     <use xlink:href="#mbc6512a484" x="227.378583" y="68.540748" style="fill: #2ca02c; stroke: #2ca02c"/>
     <use xlink:href="#mbc6512a484" x="236.490913" y="64.305918" style="fill: #2ca02c; stroke: #2ca02c"/>
     <use xlink:href="#mbc6512a484" x="245.603244" y="58.183308" style="fill: #2ca02c; stroke: #2ca02c"/>
     <use xlink:href="#mbc6512a484" x="254.715575" y="52.23588" style="fill: #2ca02c; stroke: #2ca02c"/>
     <use xlink:href="#mbc6512a484" x="263.827905" y="49.926616" style="fill: #2ca02c; stroke: #2ca02c"/>
     <use xlink:href="#mbc6512a484" x="272.940236" y="47.842853" style="fill: #2ca02c; stroke: #2ca02c"/>
     <use xlink:href="#mbc6512a484" x="282.052567" y="50.499563" style="fill: #2ca02c; stroke: #2ca02c"/>
     <use xlink:href="#mbc6512a484" x="291.164898" y="48.028162" style="fill: #2ca02c; stroke: #2ca02c"/>
     <use xlink:href="#mbc6512a484" x="300.277228" y="47.301874" style="fill: #2ca02c; stroke: #2ca02c"/>
     <use xlink:href="#mbc6512a484" x="309.389559" y="51.868225" style="fill: #2ca02c; stroke: #2ca02c"/>
     <use xlink:href="#mbc6512a484" x="318.50189" y="56.870536" style="fill: #2ca02c; stroke: #2ca02c"/>
     <use xlink:href="#mbc6512a484" x="327.61422" y="57.989878" style="fill: #2ca02c; stroke: #2ca02c"/>
    </g>
   </g>
   <g id="line2d_15">
    <g clip-path="url(#p2e35b78b57)">
     <use xlink:href="#mbc6512a484" x="63.35663" y="66.93909" style="fill: #2ca02c; stroke: #2ca02c"/>
     <use xlink:href="#mbc6512a484" x="72.46896" y="43.207773" style="fill: #2ca02c; stroke: #2ca02c"/>
     <use xlink:href="#mbc6512a484" x="81.581291" y="46.503323" style="fill: #2ca02c; stroke: #2ca02c"/>
     <use xlink:href="#mbc6512a484" x="90.693622" y="38.42551" style="fill: #2ca02c; stroke: #2ca02c"/>
     <use xlink:href="#mbc6512a484" x="99.805952" y="25.066922" style="fill: #2ca02c; stroke: #2ca02c"/>
     <use xlink:href="#mbc6512a484" x="108.918283" y="29.643265" style="fill: #2ca02c; stroke: #2ca02c"/>
     <use xlink:href="#mbc6512a484" x="118.030614" y="25.462515" style="fill: #2ca02c; stroke: #2ca02c"/>
     <use xlink:href="#mbc6512a484" x="127.142945" y="29.222798" style="fill: #2ca02c; stroke: #2ca02c"/>
     <use xlink:href="#mbc6512a484" x="136.255275" y="36.892582" style="fill: #2ca02c; stroke: #2ca02c"/>
     <use xlink:href="#mbc6512a484" x="145.367606" y="43.853462" style="fill: #2ca02c; stroke: #2ca02c"/>
     <use xlink:href="#mbc6512a484" x="154.479937" y="38.527448" style="fill: #2ca02c; stroke: #2ca02c"/>
     <use xlink:href="#mbc6512a484" x="163.592267" y="33.601441" style="fill: #2ca02c; stroke: #2ca02c"/>
     <use xlink:href="#mbc6512a484" x="172.704598" y="30.949457" style="fill: #2ca02c; stroke: #2ca02c"/>
     <use xlink:href="#mbc6512a484" x="181.816929" y="42.21817" style="fill: #2ca02c; stroke: #2ca02c"/>
     <use xlink:href="#mbc6512a484" x="190.92926" y="47.101205" style="fill: #2ca02c; stroke: #2ca02c"/>
     <use xlink:href="#mbc6512a484" x="200.04159" y="48.342767" style="fill: #2ca02c; stroke: #2ca02c"/>
     <use xlink:href="#mbc6512a484" x="209.153921" y="46.764256" style="fill: #2ca02c; stroke: #2ca02c"/>
     <use xlink:href="#mbc6512a484" x="218.266252" y="50.103694" style="fill: #2ca02c; stroke: #2ca02c"/>
     <use xlink:href="#mbc6512a484" x="227.378583" y="54.565207" style="fill: #2ca02c; stroke: #2ca02c"/>
     <use xlink:href="#mbc6512a484" x="236.490913" y="49.022376" style="fill: #2ca02c; stroke: #2ca02c"/>
     <use xlink:href="#mbc6512a484" x="245.603244" y="43.150358" style="fill: #2ca02c; stroke: #2ca02c"/>
     <use xlink:href="#mbc6512a484" x="254.715575" y="35.945768" style="fill: #2ca02c; stroke: #2ca02c"/>
     <use xlink:href="#mbc6512a484" x="263.827905" y="33.929766" style="fill: #2ca02c; stroke: #2ca02c"/>
     <use xlink:href="#mbc6512a484" x="272.940236" y="34.286281" style="fill: #2ca02c; stroke: #2ca02c"/>
     <use xlink:href="#mbc6512a484" x="282.052567" y="36.159325" style="fill: #2ca02c; stroke: #2ca02c"/>
     <use xlink:href="#mbc6512a484" x="291.164898" y="33.486769" style="fill: #2ca02c; stroke: #2ca02c"/>
     <use xlink:href="#mbc6512a484" x="300.277228" y="37.715778" style="fill: #2ca02c; stroke: #2ca02c"/>
     <use xlink:href="#mbc6512a484" x="309.389559" y="38.200723" style="fill: #2ca02c; stroke: #2ca02c"/>
     <use xlink:href="#mbc6512a484" x="318.50189" y="40.993669" style="fill: #2ca02c; stroke: #2ca02c"/>
     <use xlink:href="#mbc6512a484" x="327.61422" y="40.634621" style="fill: #2ca02c; stroke: #2ca02c"/>
    </g>
   </g>
   <g id="line2d_16"/>
   <g id="line2d_17"/>
   <g id="patch_3">
    <path d="M 50.14375 114.705104 
L 50.14375 20.798437 
" style="fill: none; stroke: #000000; stroke-width: 0.8; stroke-linejoin: miter; stroke-linecap: square"/>
   </g>
   <g id="patch_4">
    <path d="M 50.14375 114.705104 
L 340.8271 114.705104 
" style="fill: none; stroke: #000000; stroke-width: 0.8; stroke-linejoin: miter; stroke-linecap: square"/>
   </g>
   <g id="text_14">
    <!-- match = M2M3 -->
    <g transform="translate(157.314331 14.798437) scale(0.1 -0.1)">
     <defs>
      <path id="DejaVuSans-61" d="M 2194 1759 
Q 1497 1759 1228 1600 
Q 959 1441 959 1056 
Q 959 750 1161 570 
Q 1363 391 1709 391 
Q 2188 391 2477 730 
Q 2766 1069 2766 1631 
L 2766 1759 
L 2194 1759 
z
M 3341 1997 
L 3341 0 
L 2766 0 
L 2766 531 
Q 2569 213 2275 61 
Q 1981 -91 1556 -91 
Q 1019 -91 701 211 
Q 384 513 384 1019 
Q 384 1609 779 1909 
Q 1175 2209 1959 2209 
L 2766 2209 
L 2766 2266 
Q 2766 2663 2505 2880 
Q 2244 3097 1772 3097 
Q 1472 3097 1187 3025 
Q 903 2953 641 2809 
L 641 3341 
Q 956 3463 1253 3523 
Q 1550 3584 1831 3584 
Q 2591 3584 2966 3190 
Q 3341 2797 3341 1997 
z
" transform="scale(0.015625)"/>
      <path id="DejaVuSans-74" d="M 1172 4494 
L 1172 3500 
L 2356 3500 
L 2356 3053 
L 1172 3053 
L 1172 1153 
Q 1172 725 1289 603 
Q 1406 481 1766 481 
L 2356 481 
L 2356 0 
L 1766 0 
Q 1100 0 847 248 
Q 594 497 594 1153 
L 594 3053 
L 172 3053 
L 172 3500 
L 594 3500 
L 594 4494 
L 1172 4494 
z
" transform="scale(0.015625)"/>
      <path id="DejaVuSans-68" d="M 3513 2113 
L 3513 0 
L 2938 0 
L 2938 2094 
Q 2938 2591 2744 2837 
Q 2550 3084 2163 3084 
Q 1697 3084 1428 2787 
Q 1159 2491 1159 1978 
L 1159 0 
L 581 0 
L 581 4863 
L 1159 4863 
L 1159 2956 
Q 1366 3272 1645 3428 
Q 1925 3584 2291 3584 
Q 2894 3584 3203 3211 
Q 3513 2838 3513 2113 
z
" transform="scale(0.015625)"/>
      <path id="DejaVuSans-20" transform="scale(0.015625)"/>
      <path id="DejaVuSans-3d" d="M 678 2906 
L 4684 2906 
L 4684 2381 
L 678 2381 
L 678 2906 
z
M 678 1631 
L 4684 1631 
L 4684 1100 
L 678 1100 
L 678 1631 
z
" transform="scale(0.015625)"/>
      <path id="DejaVuSans-4d" d="M 628 4666 
L 1569 4666 
L 2759 1491 
L 3956 4666 
L 4897 4666 
L 4897 0 
L 4281 0 
L 4281 4097 
L 3078 897 
L 2444 897 
L 1241 4097 
L 1241 0 
L 628 0 
L 628 4666 
z
" transform="scale(0.015625)"/>
      <path id="DejaVuSans-33" d="M 2597 2516 
Q 3050 2419 3304 2112 
Q 3559 1806 3559 1356 
Q 3559 666 3084 287 
Q 2609 -91 1734 -91 
Q 1441 -91 1130 -33 
Q 819 25 488 141 
L 488 750 
Q 750 597 1062 519 
Q 1375 441 1716 441 
Q 2309 441 2620 675 
Q 2931 909 2931 1356 
Q 2931 1769 2642 2001 
Q 2353 2234 1838 2234 
L 1294 2234 
L 1294 2753 
L 1863 2753 
Q 2328 2753 2575 2939 
Q 2822 3125 2822 3475 
Q 2822 3834 2567 4026 
Q 2313 4219 1838 4219 
Q 1578 4219 1281 4162 
Q 984 4106 628 3988 
L 628 4550 
Q 988 4650 1302 4700 
Q 1616 4750 1894 4750 
Q 2613 4750 3031 4423 
Q 3450 4097 3450 3541 
Q 3450 3153 3228 2886 
Q 3006 2619 2597 2516 
z
" transform="scale(0.015625)"/>
     </defs>
     <use xlink:href="#DejaVuSans-6d"/>
     <use xlink:href="#DejaVuSans-61" x="97.412109"/>
     <use xlink:href="#DejaVuSans-74" x="158.691406"/>
     <use xlink:href="#DejaVuSans-63" x="197.900391"/>
     <use xlink:href="#DejaVuSans-68" x="252.880859"/>
     <use xlink:href="#DejaVuSans-20" x="316.259766"/>
     <use xlink:href="#DejaVuSans-3d" x="348.046875"/>
     <use xlink:href="#DejaVuSans-20" x="431.835938"/>
     <use xlink:href="#DejaVuSans-4d" x="463.623047"/>
     <use xlink:href="#DejaVuSans-32" x="549.902344"/>
     <use xlink:href="#DejaVuSans-4d" x="613.525391"/>
     <use xlink:href="#DejaVuSans-33" x="699.804688"/>
    </g>
   </g>
  </g>
  <g id="axes_2">
   <g id="patch_5">
    <path d="M 50.14375 250.411771 
L 340.8271 250.411771 
L 340.8271 156.505104 
L 50.14375 156.505104 
z
" style="fill: #ffffff"/>
   </g>
   <g id="PolyCollection_6">
    <defs>
     <path id="m313c965832" d="M 63.35663 -214.688233 
L 63.35663 -177.531402 
L 72.46896 -177.531402 
L 81.581291 -177.531402 
L 90.693622 -177.531402 
L 99.805952 -177.531402 
L 108.918283 -177.531402 
L 118.030614 -177.531402 
L 127.142945 -177.531402 
L 136.255275 -177.531402 
L 145.367606 -177.531402 
L 154.479937 -177.531402 
L 163.592267 -177.531402 
L 172.704598 -177.531402 
L 181.816929 -177.531402 
L 190.92926 -177.531402 
L 200.04159 -177.531402 
L 209.153921 -177.531402 
L 218.266252 -177.531402 
L 227.378583 -177.531402 
L 236.490913 -177.531402 
L 245.603244 -177.531402 
L 254.715575 -177.531402 
L 263.827905 -177.531402 
L 272.940236 -177.531402 
L 282.052567 -177.531402 
L 291.164898 -177.531402 
L 300.277228 -177.531402 
L 309.389559 -177.531402 
L 318.50189 -177.531402 
L 327.61422 -177.531402 
L 327.61422 -243.947875 
L 327.61422 -243.947875 
L 318.50189 -244.284988 
L 309.389559 -250.247015 
L 300.277228 -253.623842 
L 291.164898 -254.336382 
L 282.052567 -255.756137 
L 272.940236 -255.565312 
L 263.827905 -255.783594 
L 254.715575 -254.838645 
L 245.603244 -251.446362 
L 236.490913 -250.165752 
L 227.378583 -250.043564 
L 218.266252 -254.721353 
L 209.153921 -258.987629 
L 200.04159 -257.04411 
L 190.92926 -255.594821 
L 181.816929 -256.782739 
L 172.704598 -252.820823 
L 163.592267 -252.429369 
L 154.479937 -256.072729 
L 145.367606 -252.507428 
L 136.255275 -251.909576 
L 127.142945 -247.874319 
L 118.030614 -250.769838 
L 108.918283 -245.120665 
L 99.805952 -247.069021 
L 90.693622 -248.308665 
L 81.581291 -245.930563 
L 72.46896 -240.727921 
L 63.35663 -214.688233 
z
" style="stroke: #ff7f0e; stroke-opacity: 0.05"/>
    </defs>
    <g clip-path="url(#pe3e803f713)">
     <use xlink:href="#m313c965832" x="0" y="423.674688" style="fill: #ff7f0e; fill-opacity: 0.05; stroke: #ff7f0e; stroke-opacity: 0.05"/>
    </g>
   </g>
   <g id="PolyCollection_7">
    <g clip-path="url(#pe3e803f713)">
     <use xlink:href="#m313c965832" x="0" y="423.674688" style="fill: #ff7f0e; fill-opacity: 0.05; stroke: #ff7f0e; stroke-opacity: 0.05"/>
    </g>
   </g>
   <g id="PolyCollection_8">
    <defs>
     <path id="mc63989c135" d="M 63.35663 -209.671809 
L 63.35663 -177.531402 
L 72.46896 -177.531402 
L 81.581291 -177.531402 
L 90.693622 -177.531402 
L 99.805952 -177.531402 
L 108.918283 -177.531402 
L 118.030614 -177.531402 
L 127.142945 -177.531402 
L 136.255275 -177.531402 
L 145.367606 -177.531402 
L 154.479937 -177.531402 
L 163.592267 -177.531402 
L 172.704598 -177.531402 
L 181.816929 -177.531402 
L 190.92926 -177.531402 
L 200.04159 -177.531402 
L 209.153921 -177.531402 
L 218.266252 -177.531402 
L 227.378583 -177.531402 
L 236.490913 -177.531402 
L 245.603244 -177.531402 
L 254.715575 -177.531402 
L 263.827905 -177.531402 
L 272.940236 -177.531402 
L 282.052567 -177.531402 
L 291.164898 -177.531402 
L 300.277228 -177.531402 
L 309.389559 -177.531402 
L 318.50189 -177.531402 
L 327.61422 -177.531402 
L 327.61422 -237.922162 
L 327.61422 -237.922162 
L 318.50189 -240.173665 
L 309.389559 -245.787515 
L 300.277228 -251.303739 
L 291.164898 -251.008734 
L 282.052567 -252.742923 
L 272.940236 -252.451775 
L 263.827905 -253.376303 
L 254.715575 -250.178755 
L 245.603244 -247.308237 
L 236.490913 -245.2673 
L 227.378583 -245.06973 
L 218.266252 -250.641087 
L 209.153921 -255.074159 
L 200.04159 -254.484802 
L 190.92926 -252.575274 
L 181.816929 -253.19367 
L 172.704598 -249.99835 
L 163.592267 -248.89938 
L 154.479937 -251.716927 
L 145.367606 -248.105233 
L 136.255275 -246.824232 
L 127.142945 -244.274735 
L 118.030614 -246.439084 
L 108.918283 -241.245885 
L 99.805952 -241.457858 
L 90.693622 -241.326376 
L 81.581291 -241.031662 
L 72.46896 -235.808441 
L 63.35663 -209.671809 
z
" style="stroke: #ff7f0e; stroke-opacity: 0.05"/>
    </defs>
    <g clip-path="url(#pe3e803f713)">
     <use xlink:href="#mc63989c135" x="0" y="423.674688" style="fill: #ff7f0e; fill-opacity: 0.05; stroke: #ff7f0e; stroke-opacity: 0.05"/>
    </g>
   </g>
   <g id="PolyCollection_9">
    <defs>
     <path id="m1628286cb4" d="M 63.35663 -219.704656 
L 63.35663 -177.531402 
L 72.46896 -177.531402 
L 81.581291 -177.531402 
L 90.693622 -177.531402 
L 99.805952 -177.531402 
L 108.918283 -177.531402 
L 118.030614 -177.531402 
L 127.142945 -177.531402 
L 136.255275 -177.531402 
L 145.367606 -177.531402 
L 154.479937 -177.531402 
L 163.592267 -177.531402 
L 172.704598 -177.531402 
L 181.816929 -177.531402 
L 190.92926 -177.531402 
L 200.04159 -177.531402 
L 209.153921 -177.531402 
L 218.266252 -177.531402 
L 227.378583 -177.531402 
L 236.490913 -177.531402 
L 245.603244 -177.531402 
L 254.715575 -177.531402 
L 263.827905 -177.531402 
L 272.940236 -177.531402 
L 282.052567 -177.531402 
L 291.164898 -177.531402 
L 300.277228 -177.531402 
L 309.389559 -177.531402 
L 318.50189 -177.531402 
L 327.61422 -177.531402 
L 327.61422 -249.973588 
L 327.61422 -249.973588 
L 318.50189 -248.39631 
L 309.389559 -254.706515 
L 300.277228 -255.943945 
L 291.164898 -257.66403 
L 282.052567 -258.76935 
L 272.940236 -258.67885 
L 263.827905 -258.190885 
L 254.715575 -259.498534 
L 245.603244 -255.584487 
L 236.490913 -255.064203 
L 227.378583 -255.017399 
L 218.266252 -258.801619 
L 209.153921 -262.901098 
L 200.04159 -259.603419 
L 190.92926 -258.614368 
L 181.816929 -260.371807 
L 172.704598 -255.643295 
L 163.592267 -255.959357 
L 154.479937 -260.42853 
L 145.367606 -256.909624 
L 136.255275 -256.994919 
L 127.142945 -251.473902 
L 118.030614 -255.100591 
L 108.918283 -248.995444 
L 99.805952 -252.680184 
L 90.693622 -255.290954 
L 81.581291 -250.829463 
L 72.46896 -245.647401 
L 63.35663 -219.704656 
z
" style="stroke: #ff7f0e; stroke-opacity: 0.05"/>
    </defs>
    <g clip-path="url(#pe3e803f713)">
     <use xlink:href="#m1628286cb4" x="0" y="423.674688" style="fill: #ff7f0e; fill-opacity: 0.05; stroke: #ff7f0e; stroke-opacity: 0.05"/>
    </g>
   </g>
   <g id="PolyCollection_10"/>
   <g id="matplotlib.axis_3">
    <g id="xtick_10">
     <g id="line2d_18">
      <g>
       <use xlink:href="#m8aa39fc3f8" x="63.35663" y="250.411771" style="stroke: #000000; stroke-width: 0.8"/>
      </g>
     </g>
     <g id="text_15">
      <!-- 0.00 -->
      <g transform="translate(52.223817 265.010208) scale(0.1 -0.1)">
       <use xlink:href="#DejaVuSans-30"/>
       <use xlink:href="#DejaVuSans-2e" x="63.623047"/>
       <use xlink:href="#DejaVuSans-30" x="95.410156"/>
       <use xlink:href="#DejaVuSans-30" x="159.033203"/>
      </g>
     </g>
    </g>
    <g id="xtick_11">
     <g id="line2d_19">
      <g>
       <use xlink:href="#m8aa39fc3f8" x="96.388828" y="250.411771" style="stroke: #000000; stroke-width: 0.8"/>
      </g>
     </g>
     <g id="text_16">
      <!-- 0.25 -->
      <g transform="translate(85.256016 265.010208) scale(0.1 -0.1)">
       <use xlink:href="#DejaVuSans-30"/>
       <use xlink:href="#DejaVuSans-2e" x="63.623047"/>
       <use xlink:href="#DejaVuSans-32" x="95.410156"/>
       <use xlink:href="#DejaVuSans-35" x="159.033203"/>
      </g>
     </g>
    </g>
    <g id="xtick_12">
     <g id="line2d_20">
      <g>
       <use xlink:href="#m8aa39fc3f8" x="129.421027" y="250.411771" style="stroke: #000000; stroke-width: 0.8"/>
      </g>
     </g>
     <g id="text_17">
      <!-- 0.50 -->
      <g transform="translate(118.288215 265.010208) scale(0.1 -0.1)">
       <use xlink:href="#DejaVuSans-30"/>
       <use xlink:href="#DejaVuSans-2e" x="63.623047"/>
       <use xlink:href="#DejaVuSans-35" x="95.410156"/>
       <use xlink:href="#DejaVuSans-30" x="159.033203"/>
      </g>
     </g>
    </g>
    <g id="xtick_13">
     <g id="line2d_21">
      <g>
       <use xlink:href="#m8aa39fc3f8" x="162.453226" y="250.411771" style="stroke: #000000; stroke-width: 0.8"/>
      </g>
     </g>
     <g id="text_18">
      <!-- 0.75 -->
      <g transform="translate(151.320414 265.010208) scale(0.1 -0.1)">
       <use xlink:href="#DejaVuSans-30"/>
       <use xlink:href="#DejaVuSans-2e" x="63.623047"/>
       <use xlink:href="#DejaVuSans-37" x="95.410156"/>
       <use xlink:href="#DejaVuSans-35" x="159.033203"/>
      </g>
     </g>
    </g>
    <g id="xtick_14">
     <g id="line2d_22">
      <g>
       <use xlink:href="#m8aa39fc3f8" x="195.485425" y="250.411771" style="stroke: #000000; stroke-width: 0.8"/>
      </g>
     </g>
     <g id="text_19">
      <!-- 1.00 -->
      <g transform="translate(184.352613 265.010208) scale(0.1 -0.1)">
       <use xlink:href="#DejaVuSans-31"/>
       <use xlink:href="#DejaVuSans-2e" x="63.623047"/>
       <use xlink:href="#DejaVuSans-30" x="95.410156"/>
       <use xlink:href="#DejaVuSans-30" x="159.033203"/>
      </g>
     </g>
    </g>
    <g id="xtick_15">
     <g id="line2d_23">
      <g>
       <use xlink:href="#m8aa39fc3f8" x="228.517624" y="250.411771" style="stroke: #000000; stroke-width: 0.8"/>
      </g>
     </g>
     <g id="text_20">
      <!-- 1.25 -->
      <g transform="translate(217.384811 265.010208) scale(0.1 -0.1)">
       <use xlink:href="#DejaVuSans-31"/>
       <use xlink:href="#DejaVuSans-2e" x="63.623047"/>
       <use xlink:href="#DejaVuSans-32" x="95.410156"/>
       <use xlink:href="#DejaVuSans-35" x="159.033203"/>
      </g>
     </g>
    </g>
    <g id="xtick_16">
     <g id="line2d_24">
      <g>
       <use xlink:href="#m8aa39fc3f8" x="261.549823" y="250.411771" style="stroke: #000000; stroke-width: 0.8"/>
      </g>
     </g>
     <g id="text_21">
      <!-- 1.50 -->
      <g transform="translate(250.41701 265.010208) scale(0.1 -0.1)">
       <use xlink:href="#DejaVuSans-31"/>
       <use xlink:href="#DejaVuSans-2e" x="63.623047"/>
       <use xlink:href="#DejaVuSans-35" x="95.410156"/>
       <use xlink:href="#DejaVuSans-30" x="159.033203"/>
      </g>
     </g>
    </g>
    <g id="xtick_17">
     <g id="line2d_25">
      <g>
       <use xlink:href="#m8aa39fc3f8" x="294.582022" y="250.411771" style="stroke: #000000; stroke-width: 0.8"/>
      </g>
     </g>
     <g id="text_22">
      <!-- 1.75 -->
      <g transform="translate(283.449209 265.010208) scale(0.1 -0.1)">
       <use xlink:href="#DejaVuSans-31"/>
       <use xlink:href="#DejaVuSans-2e" x="63.623047"/>
       <use xlink:href="#DejaVuSans-37" x="95.410156"/>
       <use xlink:href="#DejaVuSans-35" x="159.033203"/>
      </g>
     </g>
    </g>
    <g id="xtick_18">
     <g id="line2d_26">
      <g>
       <use xlink:href="#m8aa39fc3f8" x="327.61422" y="250.411771" style="stroke: #000000; stroke-width: 0.8"/>
      </g>
     </g>
     <g id="text_23">
      <!-- 2.00 -->
      <g transform="translate(316.481408 265.010208) scale(0.1 -0.1)">
       <use xlink:href="#DejaVuSans-32"/>
       <use xlink:href="#DejaVuSans-2e" x="63.623047"/>
       <use xlink:href="#DejaVuSans-30" x="95.410156"/>
       <use xlink:href="#DejaVuSans-30" x="159.033203"/>
      </g>
     </g>
    </g>
   </g>
   <g id="matplotlib.axis_4">
    <g id="ytick_4">
     <g id="line2d_27">
      <g>
       <use xlink:href="#m4a6f6e9084" x="50.14375" y="246.143286" style="stroke: #000000; stroke-width: 0.8"/>
      </g>
     </g>
     <g id="text_24">
      <!-- 0.00 -->
      <g transform="translate(20.878125 249.942505) scale(0.1 -0.1)">
       <use xlink:href="#DejaVuSans-30"/>
       <use xlink:href="#DejaVuSans-2e" x="63.623047"/>
       <use xlink:href="#DejaVuSans-30" x="95.410156"/>
       <use xlink:href="#DejaVuSans-30" x="159.033203"/>
      </g>
     </g>
    </g>
    <g id="ytick_5">
     <g id="line2d_28">
      <g>
       <use xlink:href="#m4a6f6e9084" x="50.14375" y="202.474142" style="stroke: #000000; stroke-width: 0.8"/>
      </g>
     </g>
     <g id="text_25">
      <!-- 0.02 -->
      <g transform="translate(20.878125 206.27336) scale(0.1 -0.1)">
       <use xlink:href="#DejaVuSans-30"/>
       <use xlink:href="#DejaVuSans-2e" x="63.623047"/>
       <use xlink:href="#DejaVuSans-30" x="95.410156"/>
       <use xlink:href="#DejaVuSans-32" x="159.033203"/>
      </g>
     </g>
    </g>
    <g id="ytick_6">
     <g id="line2d_29">
      <g>
       <use xlink:href="#m4a6f6e9084" x="50.14375" y="158.804997" style="stroke: #000000; stroke-width: 0.8"/>
      </g>
     </g>
     <g id="text_26">
      <!-- 0.04 -->
      <g transform="translate(20.878125 162.604216) scale(0.1 -0.1)">
       <use xlink:href="#DejaVuSans-30"/>
       <use xlink:href="#DejaVuSans-2e" x="63.623047"/>
       <use xlink:href="#DejaVuSans-30" x="95.410156"/>
       <use xlink:href="#DejaVuSans-34" x="159.033203"/>
      </g>
     </g>
    </g>
    <g id="text_27">
     <!-- occp_norm -->
     <g transform="translate(14.520313 230.756875) rotate(-90) scale(0.1 -0.1)">
      <use xlink:href="#DejaVuSans-6f"/>
      <use xlink:href="#DejaVuSans-63" x="61.181641"/>
      <use xlink:href="#DejaVuSans-63" x="116.162109"/>
      <use xlink:href="#DejaVuSans-70" x="171.142578"/>
      <use xlink:href="#DejaVuSans-5f" x="234.619141"/>
      <use xlink:href="#DejaVuSans-6e" x="284.619141"/>
      <use xlink:href="#DejaVuSans-6f" x="347.998047"/>
      <use xlink:href="#DejaVuSans-72" x="409.179688"/>
      <use xlink:href="#DejaVuSans-6d" x="448.542969"/>
     </g>
    </g>
   </g>
   <g id="line2d_30">
    <path d="M 63.35663 208.986455 
L 72.46896 182.946766 
L 81.581291 177.744125 
L 90.693622 175.366022 
L 99.805952 176.605666 
L 108.918283 178.554023 
L 118.030614 172.90485 
L 127.142945 175.800369 
L 136.255275 171.765112 
L 145.367606 171.167259 
L 154.479937 167.601959 
L 163.592267 171.245319 
L 172.704598 170.853865 
L 181.816929 166.891949 
L 190.92926 168.079866 
L 200.04159 166.630577 
L 209.153921 164.687059 
L 218.266252 168.953335 
L 227.378583 173.631123 
L 236.490913 173.508936 
L 245.603244 172.228326 
L 254.715575 168.836043 
L 263.827905 167.891094 
L 272.940236 168.109375 
L 282.052567 167.918551 
L 291.164898 169.338306 
L 300.277228 170.050846 
L 309.389559 173.427672 
L 318.50189 179.3897 
L 327.61422 179.726812 
" clip-path="url(#pe3e803f713)" style="fill: none; stroke: #ff7f0e; stroke-width: 1.5; stroke-linecap: square"/>
   </g>
   <g id="LineCollection_2">
    <path d="M 63.35663 214.002878 
L 63.35663 203.970031 
" clip-path="url(#pe3e803f713)" style="fill: none; stroke: #ff7f0e; stroke-width: 1.5; stroke-linecap: square"/>
    <path d="M 72.46896 187.866246 
L 72.46896 178.027286 
" clip-path="url(#pe3e803f713)" style="fill: none; stroke: #ff7f0e; stroke-width: 1.5; stroke-linecap: square"/>
    <path d="M 81.581291 182.643025 
L 81.581291 172.845224 
" clip-path="url(#pe3e803f713)" style="fill: none; stroke: #ff7f0e; stroke-width: 1.5; stroke-linecap: square"/>
    <path d="M 90.693622 182.348311 
L 90.693622 168.383733 
" clip-path="url(#pe3e803f713)" style="fill: none; stroke: #ff7f0e; stroke-width: 1.5; stroke-linecap: square"/>
    <path d="M 99.805952 182.21683 
L 99.805952 170.994503 
" clip-path="url(#pe3e803f713)" style="fill: none; stroke: #ff7f0e; stroke-width: 1.5; stroke-linecap: square"/>
    <path d="M 108.918283 182.428803 
L 108.918283 174.679243 
" clip-path="url(#pe3e803f713)" style="fill: none; stroke: #ff7f0e; stroke-width: 1.5; stroke-linecap: square"/>
    <path d="M 118.030614 177.235603 
L 118.030614 168.574097 
" clip-path="url(#pe3e803f713)" style="fill: none; stroke: #ff7f0e; stroke-width: 1.5; stroke-linecap: square"/>
    <path d="M 127.142945 179.399952 
L 127.142945 172.200786 
" clip-path="url(#pe3e803f713)" style="fill: none; stroke: #ff7f0e; stroke-width: 1.5; stroke-linecap: square"/>
    <path d="M 136.255275 176.850455 
L 136.255275 166.679768 
" clip-path="url(#pe3e803f713)" style="fill: none; stroke: #ff7f0e; stroke-width: 1.5; stroke-linecap: square"/>
    <path d="M 145.367606 175.569455 
L 145.367606 166.765064 
" clip-path="url(#pe3e803f713)" style="fill: none; stroke: #ff7f0e; stroke-width: 1.5; stroke-linecap: square"/>
    <path d="M 154.479937 171.95776 
L 154.479937 163.246157 
" clip-path="url(#pe3e803f713)" style="fill: none; stroke: #ff7f0e; stroke-width: 1.5; stroke-linecap: square"/>
    <path d="M 163.592267 174.775307 
L 163.592267 167.71533 
" clip-path="url(#pe3e803f713)" style="fill: none; stroke: #ff7f0e; stroke-width: 1.5; stroke-linecap: square"/>
    <path d="M 172.704598 173.676338 
L 172.704598 168.031392 
" clip-path="url(#pe3e803f713)" style="fill: none; stroke: #ff7f0e; stroke-width: 1.5; stroke-linecap: square"/>
    <path d="M 181.816929 170.481017 
L 181.816929 163.302881 
" clip-path="url(#pe3e803f713)" style="fill: none; stroke: #ff7f0e; stroke-width: 1.5; stroke-linecap: square"/>
    <path d="M 190.92926 171.099413 
L 190.92926 165.060319 
" clip-path="url(#pe3e803f713)" style="fill: none; stroke: #ff7f0e; stroke-width: 1.5; stroke-linecap: square"/>
    <path d="M 200.04159 169.189886 
L 200.04159 164.071268 
" clip-path="url(#pe3e803f713)" style="fill: none; stroke: #ff7f0e; stroke-width: 1.5; stroke-linecap: square"/>
    <path d="M 209.153921 168.600528 
L 209.153921 160.773589 
" clip-path="url(#pe3e803f713)" style="fill: none; stroke: #ff7f0e; stroke-width: 1.5; stroke-linecap: square"/>
    <path d="M 218.266252 173.033601 
L 218.266252 164.873069 
" clip-path="url(#pe3e803f713)" style="fill: none; stroke: #ff7f0e; stroke-width: 1.5; stroke-linecap: square"/>
    <path d="M 227.378583 178.604958 
L 227.378583 168.657289 
" clip-path="url(#pe3e803f713)" style="fill: none; stroke: #ff7f0e; stroke-width: 1.5; stroke-linecap: square"/>
    <path d="M 236.490913 178.407388 
L 236.490913 168.610484 
" clip-path="url(#pe3e803f713)" style="fill: none; stroke: #ff7f0e; stroke-width: 1.5; stroke-linecap: square"/>
    <path d="M 245.603244 176.366451 
L 245.603244 168.090201 
" clip-path="url(#pe3e803f713)" style="fill: none; stroke: #ff7f0e; stroke-width: 1.5; stroke-linecap: square"/>
    <path d="M 254.715575 173.495932 
L 254.715575 164.176154 
" clip-path="url(#pe3e803f713)" style="fill: none; stroke: #ff7f0e; stroke-width: 1.5; stroke-linecap: square"/>
    <path d="M 263.827905 170.298385 
L 263.827905 165.483803 
" clip-path="url(#pe3e803f713)" style="fill: none; stroke: #ff7f0e; stroke-width: 1.5; stroke-linecap: square"/>
    <path d="M 272.940236 171.222913 
L 272.940236 164.995837 
" clip-path="url(#pe3e803f713)" style="fill: none; stroke: #ff7f0e; stroke-width: 1.5; stroke-linecap: square"/>
    <path d="M 282.052567 170.931764 
L 282.052567 164.905338 
" clip-path="url(#pe3e803f713)" style="fill: none; stroke: #ff7f0e; stroke-width: 1.5; stroke-linecap: square"/>
    <path d="M 291.164898 172.665953 
L 291.164898 166.010658 
" clip-path="url(#pe3e803f713)" style="fill: none; stroke: #ff7f0e; stroke-width: 1.5; stroke-linecap: square"/>
    <path d="M 300.277228 172.370948 
L 300.277228 167.730743 
" clip-path="url(#pe3e803f713)" style="fill: none; stroke: #ff7f0e; stroke-width: 1.5; stroke-linecap: square"/>
    <path d="M 309.389559 177.887173 
L 309.389559 168.968172 
" clip-path="url(#pe3e803f713)" style="fill: none; stroke: #ff7f0e; stroke-width: 1.5; stroke-linecap: square"/>
    <path d="M 318.50189 183.501022 
L 318.50189 175.278378 
" clip-path="url(#pe3e803f713)" style="fill: none; stroke: #ff7f0e; stroke-width: 1.5; stroke-linecap: square"/>
    <path d="M 327.61422 185.752525 
L 327.61422 173.701099 
" clip-path="url(#pe3e803f713)" style="fill: none; stroke: #ff7f0e; stroke-width: 1.5; stroke-linecap: square"/>
   </g>
   <g id="line2d_31">
    <defs>
     <path id="m7535e93dde" d="M 1 0 
L -1 -0 
" style="stroke: #ff7f0e"/>
    </defs>
    <g clip-path="url(#pe3e803f713)">
     <use xlink:href="#m7535e93dde" x="63.35663" y="214.002878" style="fill: #ff7f0e; stroke: #ff7f0e"/>
     <use xlink:href="#m7535e93dde" x="72.46896" y="187.866246" style="fill: #ff7f0e; stroke: #ff7f0e"/>
     <use xlink:href="#m7535e93dde" x="81.581291" y="182.643025" style="fill: #ff7f0e; stroke: #ff7f0e"/>
     <use xlink:href="#m7535e93dde" x="90.693622" y="182.348311" style="fill: #ff7f0e; stroke: #ff7f0e"/>
     <use xlink:href="#m7535e93dde" x="99.805952" y="182.21683" style="fill: #ff7f0e; stroke: #ff7f0e"/>
     <use xlink:href="#m7535e93dde" x="108.918283" y="182.428803" style="fill: #ff7f0e; stroke: #ff7f0e"/>
     <use xlink:href="#m7535e93dde" x="118.030614" y="177.235603" style="fill: #ff7f0e; stroke: #ff7f0e"/>
     <use xlink:href="#m7535e93dde" x="127.142945" y="179.399952" style="fill: #ff7f0e; stroke: #ff7f0e"/>
     <use xlink:href="#m7535e93dde" x="136.255275" y="176.850455" style="fill: #ff7f0e; stroke: #ff7f0e"/>
     <use xlink:href="#m7535e93dde" x="145.367606" y="175.569455" style="fill: #ff7f0e; stroke: #ff7f0e"/>
     <use xlink:href="#m7535e93dde" x="154.479937" y="171.95776" style="fill: #ff7f0e; stroke: #ff7f0e"/>
     <use xlink:href="#m7535e93dde" x="163.592267" y="174.775307" style="fill: #ff7f0e; stroke: #ff7f0e"/>
     <use xlink:href="#m7535e93dde" x="172.704598" y="173.676338" style="fill: #ff7f0e; stroke: #ff7f0e"/>
     <use xlink:href="#m7535e93dde" x="181.816929" y="170.481017" style="fill: #ff7f0e; stroke: #ff7f0e"/>
     <use xlink:href="#m7535e93dde" x="190.92926" y="171.099413" style="fill: #ff7f0e; stroke: #ff7f0e"/>
     <use xlink:href="#m7535e93dde" x="200.04159" y="169.189886" style="fill: #ff7f0e; stroke: #ff7f0e"/>
     <use xlink:href="#m7535e93dde" x="209.153921" y="168.600528" style="fill: #ff7f0e; stroke: #ff7f0e"/>
     <use xlink:href="#m7535e93dde" x="218.266252" y="173.033601" style="fill: #ff7f0e; stroke: #ff7f0e"/>
     <use xlink:href="#m7535e93dde" x="227.378583" y="178.604958" style="fill: #ff7f0e; stroke: #ff7f0e"/>
     <use xlink:href="#m7535e93dde" x="236.490913" y="178.407388" style="fill: #ff7f0e; stroke: #ff7f0e"/>
     <use xlink:href="#m7535e93dde" x="245.603244" y="176.366451" style="fill: #ff7f0e; stroke: #ff7f0e"/>
     <use xlink:href="#m7535e93dde" x="254.715575" y="173.495932" style="fill: #ff7f0e; stroke: #ff7f0e"/>
     <use xlink:href="#m7535e93dde" x="263.827905" y="170.298385" style="fill: #ff7f0e; stroke: #ff7f0e"/>
     <use xlink:href="#m7535e93dde" x="272.940236" y="171.222913" style="fill: #ff7f0e; stroke: #ff7f0e"/>
     <use xlink:href="#m7535e93dde" x="282.052567" y="170.931764" style="fill: #ff7f0e; stroke: #ff7f0e"/>
     <use xlink:href="#m7535e93dde" x="291.164898" y="172.665953" style="fill: #ff7f0e; stroke: #ff7f0e"/>
     <use xlink:href="#m7535e93dde" x="300.277228" y="172.370948" style="fill: #ff7f0e; stroke: #ff7f0e"/>
     <use xlink:href="#m7535e93dde" x="309.389559" y="177.887173" style="fill: #ff7f0e; stroke: #ff7f0e"/>
     <use xlink:href="#m7535e93dde" x="318.50189" y="183.501022" style="fill: #ff7f0e; stroke: #ff7f0e"/>
     <use xlink:href="#m7535e93dde" x="327.61422" y="185.752525" style="fill: #ff7f0e; stroke: #ff7f0e"/>
    </g>
   </g>
   <g id="line2d_32">
    <g clip-path="url(#pe3e803f713)">
     <use xlink:href="#m7535e93dde" x="63.35663" y="203.970031" style="fill: #ff7f0e; stroke: #ff7f0e"/>
     <use xlink:href="#m7535e93dde" x="72.46896" y="178.027286" style="fill: #ff7f0e; stroke: #ff7f0e"/>
     <use xlink:href="#m7535e93dde" x="81.581291" y="172.845224" style="fill: #ff7f0e; stroke: #ff7f0e"/>
     <use xlink:href="#m7535e93dde" x="90.693622" y="168.383733" style="fill: #ff7f0e; stroke: #ff7f0e"/>
     <use xlink:href="#m7535e93dde" x="99.805952" y="170.994503" style="fill: #ff7f0e; stroke: #ff7f0e"/>
     <use xlink:href="#m7535e93dde" x="108.918283" y="174.679243" style="fill: #ff7f0e; stroke: #ff7f0e"/>
     <use xlink:href="#m7535e93dde" x="118.030614" y="168.574097" style="fill: #ff7f0e; stroke: #ff7f0e"/>
     <use xlink:href="#m7535e93dde" x="127.142945" y="172.200786" style="fill: #ff7f0e; stroke: #ff7f0e"/>
     <use xlink:href="#m7535e93dde" x="136.255275" y="166.679768" style="fill: #ff7f0e; stroke: #ff7f0e"/>
     <use xlink:href="#m7535e93dde" x="145.367606" y="166.765064" style="fill: #ff7f0e; stroke: #ff7f0e"/>
     <use xlink:href="#m7535e93dde" x="154.479937" y="163.246157" style="fill: #ff7f0e; stroke: #ff7f0e"/>
     <use xlink:href="#m7535e93dde" x="163.592267" y="167.71533" style="fill: #ff7f0e; stroke: #ff7f0e"/>
     <use xlink:href="#m7535e93dde" x="172.704598" y="168.031392" style="fill: #ff7f0e; stroke: #ff7f0e"/>
     <use xlink:href="#m7535e93dde" x="181.816929" y="163.302881" style="fill: #ff7f0e; stroke: #ff7f0e"/>
     <use xlink:href="#m7535e93dde" x="190.92926" y="165.060319" style="fill: #ff7f0e; stroke: #ff7f0e"/>
     <use xlink:href="#m7535e93dde" x="200.04159" y="164.071268" style="fill: #ff7f0e; stroke: #ff7f0e"/>
     <use xlink:href="#m7535e93dde" x="209.153921" y="160.773589" style="fill: #ff7f0e; stroke: #ff7f0e"/>
     <use xlink:href="#m7535e93dde" x="218.266252" y="164.873069" style="fill: #ff7f0e; stroke: #ff7f0e"/>
     <use xlink:href="#m7535e93dde" x="227.378583" y="168.657289" style="fill: #ff7f0e; stroke: #ff7f0e"/>
     <use xlink:href="#m7535e93dde" x="236.490913" y="168.610484" style="fill: #ff7f0e; stroke: #ff7f0e"/>
     <use xlink:href="#m7535e93dde" x="245.603244" y="168.090201" style="fill: #ff7f0e; stroke: #ff7f0e"/>
     <use xlink:href="#m7535e93dde" x="254.715575" y="164.176154" style="fill: #ff7f0e; stroke: #ff7f0e"/>
     <use xlink:href="#m7535e93dde" x="263.827905" y="165.483803" style="fill: #ff7f0e; stroke: #ff7f0e"/>
     <use xlink:href="#m7535e93dde" x="272.940236" y="164.995837" style="fill: #ff7f0e; stroke: #ff7f0e"/>
     <use xlink:href="#m7535e93dde" x="282.052567" y="164.905338" style="fill: #ff7f0e; stroke: #ff7f0e"/>
     <use xlink:href="#m7535e93dde" x="291.164898" y="166.010658" style="fill: #ff7f0e; stroke: #ff7f0e"/>
     <use xlink:href="#m7535e93dde" x="300.277228" y="167.730743" style="fill: #ff7f0e; stroke: #ff7f0e"/>
     <use xlink:href="#m7535e93dde" x="309.389559" y="168.968172" style="fill: #ff7f0e; stroke: #ff7f0e"/>
     <use xlink:href="#m7535e93dde" x="318.50189" y="175.278378" style="fill: #ff7f0e; stroke: #ff7f0e"/>
     <use xlink:href="#m7535e93dde" x="327.61422" y="173.701099" style="fill: #ff7f0e; stroke: #ff7f0e"/>
    </g>
   </g>
   <g id="line2d_33"/>
   <g id="line2d_34"/>
   <g id="patch_6">
    <path d="M 50.14375 250.411771 
L 50.14375 156.505104 
" style="fill: none; stroke: #000000; stroke-width: 0.8; stroke-linejoin: miter; stroke-linecap: square"/>
   </g>
   <g id="patch_7">
    <path d="M 50.14375 250.411771 
L 340.8271 250.411771 
" style="fill: none; stroke: #000000; stroke-width: 0.8; stroke-linejoin: miter; stroke-linecap: square"/>
   </g>
   <g id="text_28">
    <!-- match = M2MO -->
    <g transform="translate(156.559644 150.505104) scale(0.1 -0.1)">
     <defs>
      <path id="DejaVuSans-4f" d="M 2522 4238 
Q 1834 4238 1429 3725 
Q 1025 3213 1025 2328 
Q 1025 1447 1429 934 
Q 1834 422 2522 422 
Q 3209 422 3611 934 
Q 4013 1447 4013 2328 
Q 4013 3213 3611 3725 
Q 3209 4238 2522 4238 
z
M 2522 4750 
Q 3503 4750 4090 4092 
Q 4678 3434 4678 2328 
Q 4678 1225 4090 567 
Q 3503 -91 2522 -91 
Q 1538 -91 948 565 
Q 359 1222 359 2328 
Q 359 3434 948 4092 
Q 1538 4750 2522 4750 
z
" transform="scale(0.015625)"/>
     </defs>
     <use xlink:href="#DejaVuSans-6d"/>
     <use xlink:href="#DejaVuSans-61" x="97.412109"/>
     <use xlink:href="#DejaVuSans-74" x="158.691406"/>
     <use xlink:href="#DejaVuSans-63" x="197.900391"/>
     <use xlink:href="#DejaVuSans-68" x="252.880859"/>
     <use xlink:href="#DejaVuSans-20" x="316.259766"/>
     <use xlink:href="#DejaVuSans-3d" x="348.046875"/>
     <use xlink:href="#DejaVuSans-20" x="431.835938"/>
     <use xlink:href="#DejaVuSans-4d" x="463.623047"/>
     <use xlink:href="#DejaVuSans-32" x="549.902344"/>
     <use xlink:href="#DejaVuSans-4d" x="613.525391"/>
     <use xlink:href="#DejaVuSans-4f" x="699.804688"/>
    </g>
   </g>
  </g>
  <g id="axes_3">
   <g id="patch_8">
    <path d="M 50.14375 386.118438 
L 340.8271 386.118438 
L 340.8271 292.211771 
L 50.14375 292.211771 
z
" style="fill: #ffffff"/>
   </g>
   <g id="PolyCollection_11">
    <defs>
     <path id="m0ebc78340b" d="M 63.35663 -66.904542 
L 63.35663 -41.824735 
L 72.46896 -41.824735 
L 81.581291 -41.824735 
L 90.693622 -41.824735 
L 99.805952 -41.824735 
L 108.918283 -41.824735 
L 118.030614 -41.824735 
L 127.142945 -41.824735 
L 136.255275 -41.824735 
L 145.367606 -41.824735 
L 154.479937 -41.824735 
L 163.592267 -41.824735 
L 172.704598 -41.824735 
L 181.816929 -41.824735 
L 190.92926 -41.824735 
L 200.04159 -41.824735 
L 209.153921 -41.824735 
L 218.266252 -41.824735 
L 227.378583 -41.824735 
L 236.490913 -41.824735 
L 245.603244 -41.824735 
L 254.715575 -41.824735 
L 263.827905 -41.824735 
L 272.940236 -41.824735 
L 282.052567 -41.824735 
L 291.164898 -41.824735 
L 300.277228 -41.824735 
L 309.389559 -41.824735 
L 318.50189 -41.824735 
L 327.61422 -41.824735 
L 327.61422 -99.566217 
L 327.61422 -99.566217 
L 318.50189 -99.532848 
L 309.389559 -101.861741 
L 300.277228 -109.190904 
L 291.164898 -116.035152 
L 282.052567 -115.506134 
L 272.940236 -118.507459 
L 263.827905 -101.544856 
L 254.715575 -101.520951 
L 245.603244 -101.059305 
L 236.490913 -100.603939 
L 227.378583 -106.904743 
L 218.266252 -115.217203 
L 209.153921 -112.074598 
L 200.04159 -103.939979 
L 190.92926 -103.739744 
L 181.816929 -107.835302 
L 172.704598 -104.701805 
L 163.592267 -107.318938 
L 154.479937 -105.494752 
L 145.367606 -113.429215 
L 136.255275 -109.030527 
L 127.142945 -106.42212 
L 118.030614 -105.787822 
L 108.918283 -110.68138 
L 99.805952 -108.621118 
L 90.693622 -102.640827 
L 81.581291 -97.615128 
L 72.46896 -93.128308 
L 63.35663 -66.904542 
z
" style="stroke: #1f77b4; stroke-opacity: 0.05"/>
    </defs>
    <g clip-path="url(#p28e6d70df4)">
     <use xlink:href="#m0ebc78340b" x="0" y="423.674688" style="fill: #1f77b4; fill-opacity: 0.05; stroke: #1f77b4; stroke-opacity: 0.05"/>
    </g>
   </g>
   <g id="PolyCollection_12">
    <g clip-path="url(#p28e6d70df4)">
     <use xlink:href="#m0ebc78340b" x="0" y="423.674688" style="fill: #1f77b4; fill-opacity: 0.05; stroke: #1f77b4; stroke-opacity: 0.05"/>
    </g>
   </g>
   <g id="PolyCollection_13">
    <defs>
     <path id="m7c08d41ae2" d="M 63.35663 -61.934613 
L 63.35663 -41.824735 
L 72.46896 -41.824735 
L 81.581291 -41.824735 
L 90.693622 -41.824735 
L 99.805952 -41.824735 
L 108.918283 -41.824735 
L 118.030614 -41.824735 
L 127.142945 -41.824735 
L 136.255275 -41.824735 
L 145.367606 -41.824735 
L 154.479937 -41.824735 
L 163.592267 -41.824735 
L 172.704598 -41.824735 
L 181.816929 -41.824735 
L 190.92926 -41.824735 
L 200.04159 -41.824735 
L 209.153921 -41.824735 
L 218.266252 -41.824735 
L 227.378583 -41.824735 
L 236.490913 -41.824735 
L 245.603244 -41.824735 
L 254.715575 -41.824735 
L 263.827905 -41.824735 
L 272.940236 -41.824735 
L 282.052567 -41.824735 
L 291.164898 -41.824735 
L 300.277228 -41.824735 
L 309.389559 -41.824735 
L 318.50189 -41.824735 
L 327.61422 -41.824735 
L 327.61422 -91.758561 
L 327.61422 -91.758561 
L 318.50189 -93.808023 
L 309.389559 -96.393933 
L 300.277228 -104.510199 
L 291.164898 -111.354568 
L 282.052567 -110.761077 
L 272.940236 -109.820487 
L 263.827905 -95.759244 
L 254.715575 -95.598173 
L 245.603244 -95.995214 
L 236.490913 -96.185916 
L 227.378583 -101.338409 
L 218.266252 -108.309971 
L 209.153921 -107.697197 
L 200.04159 -99.491499 
L 190.92926 -99.187715 
L 181.816929 -104.251239 
L 172.704598 -99.984222 
L 163.592267 -102.53261 
L 154.479937 -101.585863 
L 145.367606 -109.276396 
L 136.255275 -105.826893 
L 127.142945 -101.97204 
L 118.030614 -99.925552 
L 108.918283 -104.195152 
L 99.805952 -101.693352 
L 90.693622 -94.352359 
L 81.581291 -91.743516 
L 72.46896 -85.973502 
L 63.35663 -61.934613 
z
" style="stroke: #1f77b4; stroke-opacity: 0.05"/>
    </defs>
    <g clip-path="url(#p28e6d70df4)">
     <use xlink:href="#m7c08d41ae2" x="0" y="423.674688" style="fill: #1f77b4; fill-opacity: 0.05; stroke: #1f77b4; stroke-opacity: 0.05"/>
    </g>
   </g>
   <g id="PolyCollection_14">
    <defs>
     <path id="m2e16adb9d8" d="M 63.35663 -71.874471 
L 63.35663 -41.824735 
L 72.46896 -41.824735 
L 81.581291 -41.824735 
L 90.693622 -41.824735 
L 99.805952 -41.824735 
L 108.918283 -41.824735 
L 118.030614 -41.824735 
L 127.142945 -41.824735 
L 136.255275 -41.824735 
L 145.367606 -41.824735 
L 154.479937 -41.824735 
L 163.592267 -41.824735 
L 172.704598 -41.824735 
L 181.816929 -41.824735 
L 190.92926 -41.824735 
L 200.04159 -41.824735 
L 209.153921 -41.824735 
L 218.266252 -41.824735 
L 227.378583 -41.824735 
L 236.490913 -41.824735 
L 245.603244 -41.824735 
L 254.715575 -41.824735 
L 263.827905 -41.824735 
L 272.940236 -41.824735 
L 282.052567 -41.824735 
L 291.164898 -41.824735 
L 300.277228 -41.824735 
L 309.389559 -41.824735 
L 318.50189 -41.824735 
L 327.61422 -41.824735 
L 327.61422 -107.373873 
L 327.61422 -107.373873 
L 318.50189 -105.257674 
L 309.389559 -107.329549 
L 300.277228 -113.871608 
L 291.164898 -120.715736 
L 282.052567 -120.251191 
L 272.940236 -127.194432 
L 263.827905 -107.330467 
L 254.715575 -107.443728 
L 245.603244 -106.123396 
L 236.490913 -105.021961 
L 227.378583 -112.471078 
L 218.266252 -122.124434 
L 209.153921 -116.451999 
L 200.04159 -108.38846 
L 190.92926 -108.291774 
L 181.816929 -111.419365 
L 172.704598 -109.419389 
L 163.592267 -112.105265 
L 154.479937 -109.403641 
L 145.367606 -117.582033 
L 136.255275 -112.234161 
L 127.142945 -110.8722 
L 118.030614 -111.650092 
L 108.918283 -117.167609 
L 99.805952 -115.548884 
L 90.693622 -110.929295 
L 81.581291 -103.48674 
L 72.46896 -100.283115 
L 63.35663 -71.874471 
z
" style="stroke: #1f77b4; stroke-opacity: 0.05"/>
    </defs>
    <g clip-path="url(#p28e6d70df4)">
     <use xlink:href="#m2e16adb9d8" x="0" y="423.674688" style="fill: #1f77b4; fill-opacity: 0.05; stroke: #1f77b4; stroke-opacity: 0.05"/>
    </g>
   </g>
   <g id="PolyCollection_15"/>
   <g id="matplotlib.axis_5">
    <g id="xtick_19">
     <g id="line2d_35">
      <g>
       <use xlink:href="#m8aa39fc3f8" x="63.35663" y="386.118438" style="stroke: #000000; stroke-width: 0.8"/>
      </g>
     </g>
     <g id="text_29">
      <!-- 0.00 -->
      <g transform="translate(52.223817 400.716875) scale(0.1 -0.1)">
       <use xlink:href="#DejaVuSans-30"/>
       <use xlink:href="#DejaVuSans-2e" x="63.623047"/>
       <use xlink:href="#DejaVuSans-30" x="95.410156"/>
       <use xlink:href="#DejaVuSans-30" x="159.033203"/>
      </g>
     </g>
    </g>
    <g id="xtick_20">
     <g id="line2d_36">
      <g>
       <use xlink:href="#m8aa39fc3f8" x="96.388828" y="386.118438" style="stroke: #000000; stroke-width: 0.8"/>
      </g>
     </g>
     <g id="text_30">
      <!-- 0.25 -->
      <g transform="translate(85.256016 400.716875) scale(0.1 -0.1)">
       <use xlink:href="#DejaVuSans-30"/>
       <use xlink:href="#DejaVuSans-2e" x="63.623047"/>
       <use xlink:href="#DejaVuSans-32" x="95.410156"/>
       <use xlink:href="#DejaVuSans-35" x="159.033203"/>
      </g>
     </g>
    </g>
    <g id="xtick_21">
     <g id="line2d_37">
      <g>
       <use xlink:href="#m8aa39fc3f8" x="129.421027" y="386.118438" style="stroke: #000000; stroke-width: 0.8"/>
      </g>
     </g>
     <g id="text_31">
      <!-- 0.50 -->
      <g transform="translate(118.288215 400.716875) scale(0.1 -0.1)">
       <use xlink:href="#DejaVuSans-30"/>
       <use xlink:href="#DejaVuSans-2e" x="63.623047"/>
       <use xlink:href="#DejaVuSans-35" x="95.410156"/>
       <use xlink:href="#DejaVuSans-30" x="159.033203"/>
      </g>
     </g>
    </g>
    <g id="xtick_22">
     <g id="line2d_38">
      <g>
       <use xlink:href="#m8aa39fc3f8" x="162.453226" y="386.118438" style="stroke: #000000; stroke-width: 0.8"/>
      </g>
     </g>
     <g id="text_32">
      <!-- 0.75 -->
      <g transform="translate(151.320414 400.716875) scale(0.1 -0.1)">
       <use xlink:href="#DejaVuSans-30"/>
       <use xlink:href="#DejaVuSans-2e" x="63.623047"/>
       <use xlink:href="#DejaVuSans-37" x="95.410156"/>
       <use xlink:href="#DejaVuSans-35" x="159.033203"/>
      </g>
     </g>
    </g>
    <g id="xtick_23">
     <g id="line2d_39">
      <g>
       <use xlink:href="#m8aa39fc3f8" x="195.485425" y="386.118438" style="stroke: #000000; stroke-width: 0.8"/>
      </g>
     </g>
     <g id="text_33">
      <!-- 1.00 -->
      <g transform="translate(184.352613 400.716875) scale(0.1 -0.1)">
       <use xlink:href="#DejaVuSans-31"/>
       <use xlink:href="#DejaVuSans-2e" x="63.623047"/>
       <use xlink:href="#DejaVuSans-30" x="95.410156"/>
       <use xlink:href="#DejaVuSans-30" x="159.033203"/>
      </g>
     </g>
    </g>
    <g id="xtick_24">
     <g id="line2d_40">
      <g>
       <use xlink:href="#m8aa39fc3f8" x="228.517624" y="386.118438" style="stroke: #000000; stroke-width: 0.8"/>
      </g>
     </g>
     <g id="text_34">
      <!-- 1.25 -->
      <g transform="translate(217.384811 400.716875) scale(0.1 -0.1)">
       <use xlink:href="#DejaVuSans-31"/>
       <use xlink:href="#DejaVuSans-2e" x="63.623047"/>
       <use xlink:href="#DejaVuSans-32" x="95.410156"/>
       <use xlink:href="#DejaVuSans-35" x="159.033203"/>
      </g>
     </g>
    </g>
    <g id="xtick_25">
     <g id="line2d_41">
      <g>
       <use xlink:href="#m8aa39fc3f8" x="261.549823" y="386.118438" style="stroke: #000000; stroke-width: 0.8"/>
      </g>
     </g>
     <g id="text_35">
      <!-- 1.50 -->
      <g transform="translate(250.41701 400.716875) scale(0.1 -0.1)">
       <use xlink:href="#DejaVuSans-31"/>
       <use xlink:href="#DejaVuSans-2e" x="63.623047"/>
       <use xlink:href="#DejaVuSans-35" x="95.410156"/>
       <use xlink:href="#DejaVuSans-30" x="159.033203"/>
      </g>
     </g>
    </g>
    <g id="xtick_26">
     <g id="line2d_42">
      <g>
       <use xlink:href="#m8aa39fc3f8" x="294.582022" y="386.118438" style="stroke: #000000; stroke-width: 0.8"/>
      </g>
     </g>
     <g id="text_36">
      <!-- 1.75 -->
      <g transform="translate(283.449209 400.716875) scale(0.1 -0.1)">
       <use xlink:href="#DejaVuSans-31"/>
       <use xlink:href="#DejaVuSans-2e" x="63.623047"/>
       <use xlink:href="#DejaVuSans-37" x="95.410156"/>
       <use xlink:href="#DejaVuSans-35" x="159.033203"/>
      </g>
     </g>
    </g>
    <g id="xtick_27">
     <g id="line2d_43">
      <g>
       <use xlink:href="#m8aa39fc3f8" x="327.61422" y="386.118438" style="stroke: #000000; stroke-width: 0.8"/>
      </g>
     </g>
     <g id="text_37">
      <!-- 2.00 -->
      <g transform="translate(316.481408 400.716875) scale(0.1 -0.1)">
       <use xlink:href="#DejaVuSans-32"/>
       <use xlink:href="#DejaVuSans-2e" x="63.623047"/>
       <use xlink:href="#DejaVuSans-30" x="95.410156"/>
       <use xlink:href="#DejaVuSans-30" x="159.033203"/>
      </g>
     </g>
    </g>
    <g id="text_38">
     <!-- smp_space -->
     <g transform="translate(167.667456 414.116875) scale(0.1 -0.1)">
      <defs>
       <path id="DejaVuSans-73" d="M 2834 3397 
L 2834 2853 
Q 2591 2978 2328 3040 
Q 2066 3103 1784 3103 
Q 1356 3103 1142 2972 
Q 928 2841 928 2578 
Q 928 2378 1081 2264 
Q 1234 2150 1697 2047 
L 1894 2003 
Q 2506 1872 2764 1633 
Q 3022 1394 3022 966 
Q 3022 478 2636 193 
Q 2250 -91 1575 -91 
Q 1294 -91 989 -36 
Q 684 19 347 128 
L 347 722 
Q 666 556 975 473 
Q 1284 391 1588 391 
Q 1994 391 2212 530 
Q 2431 669 2431 922 
Q 2431 1156 2273 1281 
Q 2116 1406 1581 1522 
L 1381 1569 
Q 847 1681 609 1914 
Q 372 2147 372 2553 
Q 372 3047 722 3315 
Q 1072 3584 1716 3584 
Q 2034 3584 2315 3537 
Q 2597 3491 2834 3397 
z
" transform="scale(0.015625)"/>
       <path id="DejaVuSans-65" d="M 3597 1894 
L 3597 1613 
L 953 1613 
Q 991 1019 1311 708 
Q 1631 397 2203 397 
Q 2534 397 2845 478 
Q 3156 559 3463 722 
L 3463 178 
Q 3153 47 2828 -22 
Q 2503 -91 2169 -91 
Q 1331 -91 842 396 
Q 353 884 353 1716 
Q 353 2575 817 3079 
Q 1281 3584 2069 3584 
Q 2775 3584 3186 3129 
Q 3597 2675 3597 1894 
z
M 3022 2063 
Q 3016 2534 2758 2815 
Q 2500 3097 2075 3097 
Q 1594 3097 1305 2825 
Q 1016 2553 972 2059 
L 3022 2063 
z
" transform="scale(0.015625)"/>
      </defs>
      <use xlink:href="#DejaVuSans-73"/>
      <use xlink:href="#DejaVuSans-6d" x="52.099609"/>
      <use xlink:href="#DejaVuSans-70" x="149.511719"/>
      <use xlink:href="#DejaVuSans-5f" x="212.988281"/>
      <use xlink:href="#DejaVuSans-73" x="262.988281"/>
      <use xlink:href="#DejaVuSans-70" x="315.087891"/>
      <use xlink:href="#DejaVuSans-61" x="378.564453"/>
      <use xlink:href="#DejaVuSans-63" x="439.84375"/>
      <use xlink:href="#DejaVuSans-65" x="494.824219"/>
     </g>
    </g>
   </g>
   <g id="matplotlib.axis_6">
    <g id="ytick_7">
     <g id="line2d_44">
      <g>
       <use xlink:href="#m4a6f6e9084" x="50.14375" y="381.849953" style="stroke: #000000; stroke-width: 0.8"/>
      </g>
     </g>
     <g id="text_39">
      <!-- 0.00 -->
      <g transform="translate(20.878125 385.649171) scale(0.1 -0.1)">
       <use xlink:href="#DejaVuSans-30"/>
       <use xlink:href="#DejaVuSans-2e" x="63.623047"/>
       <use xlink:href="#DejaVuSans-30" x="95.410156"/>
       <use xlink:href="#DejaVuSans-30" x="159.033203"/>
      </g>
     </g>
    </g>
    <g id="ytick_8">
     <g id="line2d_45">
      <g>
       <use xlink:href="#m4a6f6e9084" x="50.14375" y="344.016442" style="stroke: #000000; stroke-width: 0.8"/>
      </g>
     </g>
     <g id="text_40">
      <!-- 0.02 -->
      <g transform="translate(20.878125 347.815661) scale(0.1 -0.1)">
       <use xlink:href="#DejaVuSans-30"/>
       <use xlink:href="#DejaVuSans-2e" x="63.623047"/>
       <use xlink:href="#DejaVuSans-30" x="95.410156"/>
       <use xlink:href="#DejaVuSans-32" x="159.033203"/>
      </g>
     </g>
    </g>
    <g id="ytick_9">
     <g id="line2d_46">
      <g>
       <use xlink:href="#m4a6f6e9084" x="50.14375" y="306.182932" style="stroke: #000000; stroke-width: 0.8"/>
      </g>
     </g>
     <g id="text_41">
      <!-- 0.04 -->
      <g transform="translate(20.878125 309.982151) scale(0.1 -0.1)">
       <use xlink:href="#DejaVuSans-30"/>
       <use xlink:href="#DejaVuSans-2e" x="63.623047"/>
       <use xlink:href="#DejaVuSans-30" x="95.410156"/>
       <use xlink:href="#DejaVuSans-34" x="159.033203"/>
      </g>
     </g>
    </g>
    <g id="text_42">
     <!-- occp_norm -->
     <g transform="translate(14.520313 366.463542) rotate(-90) scale(0.1 -0.1)">
      <use xlink:href="#DejaVuSans-6f"/>
      <use xlink:href="#DejaVuSans-63" x="61.181641"/>
      <use xlink:href="#DejaVuSans-63" x="116.162109"/>
      <use xlink:href="#DejaVuSans-70" x="171.142578"/>
      <use xlink:href="#DejaVuSans-5f" x="234.619141"/>
      <use xlink:href="#DejaVuSans-6e" x="284.619141"/>
      <use xlink:href="#DejaVuSans-6f" x="347.998047"/>
      <use xlink:href="#DejaVuSans-72" x="409.179688"/>
      <use xlink:href="#DejaVuSans-6d" x="448.542969"/>
     </g>
    </g>
   </g>
   <g id="line2d_47">
    <path d="M 63.35663 356.770146 
L 72.46896 330.546379 
L 81.581291 326.05956 
L 90.693622 321.03386 
L 99.805952 315.05357 
L 108.918283 312.993307 
L 118.030614 317.886866 
L 127.142945 317.252567 
L 136.255275 314.644161 
L 145.367606 310.245473 
L 154.479937 318.179936 
L 163.592267 316.35575 
L 172.704598 318.972882 
L 181.816929 315.839385 
L 190.92926 319.934943 
L 200.04159 319.734708 
L 209.153921 311.60009 
L 218.266252 308.457485 
L 227.378583 316.769944 
L 236.490913 323.070749 
L 245.603244 322.615382 
L 254.715575 322.153737 
L 263.827905 322.129832 
L 272.940236 305.167228 
L 282.052567 308.168554 
L 291.164898 307.639535 
L 300.277228 314.483784 
L 309.389559 321.812947 
L 318.50189 324.141839 
L 327.61422 324.10847 
" clip-path="url(#p28e6d70df4)" style="fill: none; stroke: #1f77b4; stroke-width: 1.5; stroke-linecap: square"/>
   </g>
   <g id="LineCollection_3">
    <path d="M 63.35663 361.740075 
L 63.35663 351.800217 
" clip-path="url(#p28e6d70df4)" style="fill: none; stroke: #1f77b4; stroke-width: 1.5; stroke-linecap: square"/>
    <path d="M 72.46896 337.701186 
L 72.46896 323.391572 
" clip-path="url(#p28e6d70df4)" style="fill: none; stroke: #1f77b4; stroke-width: 1.5; stroke-linecap: square"/>
    <path d="M 81.581291 331.931172 
L 81.581291 320.187948 
" clip-path="url(#p28e6d70df4)" style="fill: none; stroke: #1f77b4; stroke-width: 1.5; stroke-linecap: square"/>
    <path d="M 90.693622 329.322329 
L 90.693622 312.745392 
" clip-path="url(#p28e6d70df4)" style="fill: none; stroke: #1f77b4; stroke-width: 1.5; stroke-linecap: square"/>
    <path d="M 99.805952 321.981336 
L 99.805952 308.125804 
" clip-path="url(#p28e6d70df4)" style="fill: none; stroke: #1f77b4; stroke-width: 1.5; stroke-linecap: square"/>
    <path d="M 108.918283 319.479535 
L 108.918283 306.507079 
" clip-path="url(#p28e6d70df4)" style="fill: none; stroke: #1f77b4; stroke-width: 1.5; stroke-linecap: square"/>
    <path d="M 118.030614 323.749136 
L 118.030614 312.024596 
" clip-path="url(#p28e6d70df4)" style="fill: none; stroke: #1f77b4; stroke-width: 1.5; stroke-linecap: square"/>
    <path d="M 127.142945 321.702648 
L 127.142945 312.802487 
" clip-path="url(#p28e6d70df4)" style="fill: none; stroke: #1f77b4; stroke-width: 1.5; stroke-linecap: square"/>
    <path d="M 136.255275 317.847795 
L 136.255275 311.440526 
" clip-path="url(#p28e6d70df4)" style="fill: none; stroke: #1f77b4; stroke-width: 1.5; stroke-linecap: square"/>
    <path d="M 145.367606 314.398292 
L 145.367606 306.092654 
" clip-path="url(#p28e6d70df4)" style="fill: none; stroke: #1f77b4; stroke-width: 1.5; stroke-linecap: square"/>
    <path d="M 154.479937 322.088824 
L 154.479937 314.271047 
" clip-path="url(#p28e6d70df4)" style="fill: none; stroke: #1f77b4; stroke-width: 1.5; stroke-linecap: square"/>
    <path d="M 163.592267 321.142077 
L 163.592267 311.569423 
" clip-path="url(#p28e6d70df4)" style="fill: none; stroke: #1f77b4; stroke-width: 1.5; stroke-linecap: square"/>
    <path d="M 172.704598 323.690466 
L 172.704598 314.255299 
" clip-path="url(#p28e6d70df4)" style="fill: none; stroke: #1f77b4; stroke-width: 1.5; stroke-linecap: square"/>
    <path d="M 181.816929 319.423449 
L 181.816929 312.255322 
" clip-path="url(#p28e6d70df4)" style="fill: none; stroke: #1f77b4; stroke-width: 1.5; stroke-linecap: square"/>
    <path d="M 190.92926 324.486973 
L 190.92926 315.382914 
" clip-path="url(#p28e6d70df4)" style="fill: none; stroke: #1f77b4; stroke-width: 1.5; stroke-linecap: square"/>
    <path d="M 200.04159 324.183189 
L 200.04159 315.286227 
" clip-path="url(#p28e6d70df4)" style="fill: none; stroke: #1f77b4; stroke-width: 1.5; stroke-linecap: square"/>
    <path d="M 209.153921 315.977491 
L 209.153921 307.222689 
" clip-path="url(#p28e6d70df4)" style="fill: none; stroke: #1f77b4; stroke-width: 1.5; stroke-linecap: square"/>
    <path d="M 218.266252 315.364716 
L 218.266252 301.550253 
" clip-path="url(#p28e6d70df4)" style="fill: none; stroke: #1f77b4; stroke-width: 1.5; stroke-linecap: square"/>
    <path d="M 227.378583 322.336279 
L 227.378583 311.20361 
" clip-path="url(#p28e6d70df4)" style="fill: none; stroke: #1f77b4; stroke-width: 1.5; stroke-linecap: square"/>
    <path d="M 236.490913 327.488771 
L 236.490913 318.652726 
" clip-path="url(#p28e6d70df4)" style="fill: none; stroke: #1f77b4; stroke-width: 1.5; stroke-linecap: square"/>
    <path d="M 245.603244 327.679474 
L 245.603244 317.551291 
" clip-path="url(#p28e6d70df4)" style="fill: none; stroke: #1f77b4; stroke-width: 1.5; stroke-linecap: square"/>
    <path d="M 254.715575 328.076514 
L 254.715575 316.23096 
" clip-path="url(#p28e6d70df4)" style="fill: none; stroke: #1f77b4; stroke-width: 1.5; stroke-linecap: square"/>
    <path d="M 263.827905 327.915444 
L 263.827905 316.34422 
" clip-path="url(#p28e6d70df4)" style="fill: none; stroke: #1f77b4; stroke-width: 1.5; stroke-linecap: square"/>
    <path d="M 272.940236 313.854201 
L 272.940236 296.480256 
" clip-path="url(#p28e6d70df4)" style="fill: none; stroke: #1f77b4; stroke-width: 1.5; stroke-linecap: square"/>
    <path d="M 282.052567 312.913611 
L 282.052567 303.423497 
" clip-path="url(#p28e6d70df4)" style="fill: none; stroke: #1f77b4; stroke-width: 1.5; stroke-linecap: square"/>
    <path d="M 291.164898 312.320119 
L 291.164898 302.958952 
" clip-path="url(#p28e6d70df4)" style="fill: none; stroke: #1f77b4; stroke-width: 1.5; stroke-linecap: square"/>
    <path d="M 300.277228 319.164488 
L 300.277228 309.803079 
" clip-path="url(#p28e6d70df4)" style="fill: none; stroke: #1f77b4; stroke-width: 1.5; stroke-linecap: square"/>
    <path d="M 309.389559 327.280754 
L 309.389559 316.345139 
" clip-path="url(#p28e6d70df4)" style="fill: none; stroke: #1f77b4; stroke-width: 1.5; stroke-linecap: square"/>
    <path d="M 318.50189 329.866665 
L 318.50189 318.417014 
" clip-path="url(#p28e6d70df4)" style="fill: none; stroke: #1f77b4; stroke-width: 1.5; stroke-linecap: square"/>
    <path d="M 327.61422 331.916127 
L 327.61422 316.300814 
" clip-path="url(#p28e6d70df4)" style="fill: none; stroke: #1f77b4; stroke-width: 1.5; stroke-linecap: square"/>
   </g>
   <g id="line2d_48">
    <defs>
     <path id="md377cc4778" d="M 1 0 
L -1 -0 
" style="stroke: #1f77b4"/>
    </defs>
    <g clip-path="url(#p28e6d70df4)">
     <use xlink:href="#md377cc4778" x="63.35663" y="361.740075" style="fill: #1f77b4; stroke: #1f77b4"/>
     <use xlink:href="#md377cc4778" x="72.46896" y="337.701186" style="fill: #1f77b4; stroke: #1f77b4"/>
     <use xlink:href="#md377cc4778" x="81.581291" y="331.931172" style="fill: #1f77b4; stroke: #1f77b4"/>
     <use xlink:href="#md377cc4778" x="90.693622" y="329.322329" style="fill: #1f77b4; stroke: #1f77b4"/>
     <use xlink:href="#md377cc4778" x="99.805952" y="321.981336" style="fill: #1f77b4; stroke: #1f77b4"/>
     <use xlink:href="#md377cc4778" x="108.918283" y="319.479535" style="fill: #1f77b4; stroke: #1f77b4"/>
     <use xlink:href="#md377cc4778" x="118.030614" y="323.749136" style="fill: #1f77b4; stroke: #1f77b4"/>
     <use xlink:href="#md377cc4778" x="127.142945" y="321.702648" style="fill: #1f77b4; stroke: #1f77b4"/>
     <use xlink:href="#md377cc4778" x="136.255275" y="317.847795" style="fill: #1f77b4; stroke: #1f77b4"/>
     <use xlink:href="#md377cc4778" x="145.367606" y="314.398292" style="fill: #1f77b4; stroke: #1f77b4"/>
     <use xlink:href="#md377cc4778" x="154.479937" y="322.088824" style="fill: #1f77b4; stroke: #1f77b4"/>
     <use xlink:href="#md377cc4778" x="163.592267" y="321.142077" style="fill: #1f77b4; stroke: #1f77b4"/>
     <use xlink:href="#md377cc4778" x="172.704598" y="323.690466" style="fill: #1f77b4; stroke: #1f77b4"/>
     <use xlink:href="#md377cc4778" x="181.816929" y="319.423449" style="fill: #1f77b4; stroke: #1f77b4"/>
     <use xlink:href="#md377cc4778" x="190.92926" y="324.486973" style="fill: #1f77b4; stroke: #1f77b4"/>
     <use xlink:href="#md377cc4778" x="200.04159" y="324.183189" style="fill: #1f77b4; stroke: #1f77b4"/>
     <use xlink:href="#md377cc4778" x="209.153921" y="315.977491" style="fill: #1f77b4; stroke: #1f77b4"/>
     <use xlink:href="#md377cc4778" x="218.266252" y="315.364716" style="fill: #1f77b4; stroke: #1f77b4"/>
     <use xlink:href="#md377cc4778" x="227.378583" y="322.336279" style="fill: #1f77b4; stroke: #1f77b4"/>
     <use xlink:href="#md377cc4778" x="236.490913" y="327.488771" style="fill: #1f77b4; stroke: #1f77b4"/>
     <use xlink:href="#md377cc4778" x="245.603244" y="327.679474" style="fill: #1f77b4; stroke: #1f77b4"/>
     <use xlink:href="#md377cc4778" x="254.715575" y="328.076514" style="fill: #1f77b4; stroke: #1f77b4"/>
     <use xlink:href="#md377cc4778" x="263.827905" y="327.915444" style="fill: #1f77b4; stroke: #1f77b4"/>
     <use xlink:href="#md377cc4778" x="272.940236" y="313.854201" style="fill: #1f77b4; stroke: #1f77b4"/>
     <use xlink:href="#md377cc4778" x="282.052567" y="312.913611" style="fill: #1f77b4; stroke: #1f77b4"/>
     <use xlink:href="#md377cc4778" x="291.164898" y="312.320119" style="fill: #1f77b4; stroke: #1f77b4"/>
     <use xlink:href="#md377cc4778" x="300.277228" y="319.164488" style="fill: #1f77b4; stroke: #1f77b4"/>
     <use xlink:href="#md377cc4778" x="309.389559" y="327.280754" style="fill: #1f77b4; stroke: #1f77b4"/>
     <use xlink:href="#md377cc4778" x="318.50189" y="329.866665" style="fill: #1f77b4; stroke: #1f77b4"/>
     <use xlink:href="#md377cc4778" x="327.61422" y="331.916127" style="fill: #1f77b4; stroke: #1f77b4"/>
    </g>
   </g>
   <g id="line2d_49">
    <g clip-path="url(#p28e6d70df4)">
     <use xlink:href="#md377cc4778" x="63.35663" y="351.800217" style="fill: #1f77b4; stroke: #1f77b4"/>
     <use xlink:href="#md377cc4778" x="72.46896" y="323.391572" style="fill: #1f77b4; stroke: #1f77b4"/>
     <use xlink:href="#md377cc4778" x="81.581291" y="320.187948" style="fill: #1f77b4; stroke: #1f77b4"/>
     <use xlink:href="#md377cc4778" x="90.693622" y="312.745392" style="fill: #1f77b4; stroke: #1f77b4"/>
     <use xlink:href="#md377cc4778" x="99.805952" y="308.125804" style="fill: #1f77b4; stroke: #1f77b4"/>
     <use xlink:href="#md377cc4778" x="108.918283" y="306.507079" style="fill: #1f77b4; stroke: #1f77b4"/>
     <use xlink:href="#md377cc4778" x="118.030614" y="312.024596" style="fill: #1f77b4; stroke: #1f77b4"/>
     <use xlink:href="#md377cc4778" x="127.142945" y="312.802487" style="fill: #1f77b4; stroke: #1f77b4"/>
     <use xlink:href="#md377cc4778" x="136.255275" y="311.440526" style="fill: #1f77b4; stroke: #1f77b4"/>
     <use xlink:href="#md377cc4778" x="145.367606" y="306.092654" style="fill: #1f77b4; stroke: #1f77b4"/>
     <use xlink:href="#md377cc4778" x="154.479937" y="314.271047" style="fill: #1f77b4; stroke: #1f77b4"/>
     <use xlink:href="#md377cc4778" x="163.592267" y="311.569423" style="fill: #1f77b4; stroke: #1f77b4"/>
     <use xlink:href="#md377cc4778" x="172.704598" y="314.255299" style="fill: #1f77b4; stroke: #1f77b4"/>
     <use xlink:href="#md377cc4778" x="181.816929" y="312.255322" style="fill: #1f77b4; stroke: #1f77b4"/>
     <use xlink:href="#md377cc4778" x="190.92926" y="315.382914" style="fill: #1f77b4; stroke: #1f77b4"/>
     <use xlink:href="#md377cc4778" x="200.04159" y="315.286227" style="fill: #1f77b4; stroke: #1f77b4"/>
     <use xlink:href="#md377cc4778" x="209.153921" y="307.222689" style="fill: #1f77b4; stroke: #1f77b4"/>
     <use xlink:href="#md377cc4778" x="218.266252" y="301.550253" style="fill: #1f77b4; stroke: #1f77b4"/>
     <use xlink:href="#md377cc4778" x="227.378583" y="311.20361" style="fill: #1f77b4; stroke: #1f77b4"/>
     <use xlink:href="#md377cc4778" x="236.490913" y="318.652726" style="fill: #1f77b4; stroke: #1f77b4"/>
     <use xlink:href="#md377cc4778" x="245.603244" y="317.551291" style="fill: #1f77b4; stroke: #1f77b4"/>
     <use xlink:href="#md377cc4778" x="254.715575" y="316.23096" style="fill: #1f77b4; stroke: #1f77b4"/>
     <use xlink:href="#md377cc4778" x="263.827905" y="316.34422" style="fill: #1f77b4; stroke: #1f77b4"/>
     <use xlink:href="#md377cc4778" x="272.940236" y="296.480256" style="fill: #1f77b4; stroke: #1f77b4"/>
     <use xlink:href="#md377cc4778" x="282.052567" y="303.423497" style="fill: #1f77b4; stroke: #1f77b4"/>
     <use xlink:href="#md377cc4778" x="291.164898" y="302.958952" style="fill: #1f77b4; stroke: #1f77b4"/>
     <use xlink:href="#md377cc4778" x="300.277228" y="309.803079" style="fill: #1f77b4; stroke: #1f77b4"/>
     <use xlink:href="#md377cc4778" x="309.389559" y="316.345139" style="fill: #1f77b4; stroke: #1f77b4"/>
     <use xlink:href="#md377cc4778" x="318.50189" y="318.417014" style="fill: #1f77b4; stroke: #1f77b4"/>
     <use xlink:href="#md377cc4778" x="327.61422" y="316.300814" style="fill: #1f77b4; stroke: #1f77b4"/>
    </g>
   </g>
   <g id="line2d_50"/>
   <g id="line2d_51"/>
   <g id="patch_9">
    <path d="M 50.14375 386.118437 
L 50.14375 292.211771 
" style="fill: none; stroke: #000000; stroke-width: 0.8; stroke-linejoin: miter; stroke-linecap: square"/>
   </g>
   <g id="patch_10">
    <path d="M 50.14375 386.118438 
L 340.8271 386.118438 
" style="fill: none; stroke: #000000; stroke-width: 0.8; stroke-linejoin: miter; stroke-linecap: square"/>
   </g>
   <g id="text_43">
    <!-- match = DGCA1 -->
    <g transform="translate(154.487769 286.211771) scale(0.1 -0.1)">
     <defs>
      <path id="DejaVuSans-44" d="M 1259 4147 
L 1259 519 
L 2022 519 
Q 2988 519 3436 956 
Q 3884 1394 3884 2338 
Q 3884 3275 3436 3711 
Q 2988 4147 2022 4147 
L 1259 4147 
z
M 628 4666 
L 1925 4666 
Q 3281 4666 3915 4102 
Q 4550 3538 4550 2338 
Q 4550 1131 3912 565 
Q 3275 0 1925 0 
L 628 0 
L 628 4666 
z
" transform="scale(0.015625)"/>
      <path id="DejaVuSans-47" d="M 3809 666 
L 3809 1919 
L 2778 1919 
L 2778 2438 
L 4434 2438 
L 4434 434 
Q 4069 175 3628 42 
Q 3188 -91 2688 -91 
Q 1594 -91 976 548 
Q 359 1188 359 2328 
Q 359 3472 976 4111 
Q 1594 4750 2688 4750 
Q 3144 4750 3555 4637 
Q 3966 4525 4313 4306 
L 4313 3634 
Q 3963 3931 3569 4081 
Q 3175 4231 2741 4231 
Q 1884 4231 1454 3753 
Q 1025 3275 1025 2328 
Q 1025 1384 1454 906 
Q 1884 428 2741 428 
Q 3075 428 3337 486 
Q 3600 544 3809 666 
z
" transform="scale(0.015625)"/>
      <path id="DejaVuSans-43" d="M 4122 4306 
L 4122 3641 
Q 3803 3938 3442 4084 
Q 3081 4231 2675 4231 
Q 1875 4231 1450 3742 
Q 1025 3253 1025 2328 
Q 1025 1406 1450 917 
Q 1875 428 2675 428 
Q 3081 428 3442 575 
Q 3803 722 4122 1019 
L 4122 359 
Q 3791 134 3420 21 
Q 3050 -91 2638 -91 
Q 1578 -91 968 557 
Q 359 1206 359 2328 
Q 359 3453 968 4101 
Q 1578 4750 2638 4750 
Q 3056 4750 3426 4639 
Q 3797 4528 4122 4306 
z
" transform="scale(0.015625)"/>
      <path id="DejaVuSans-41" d="M 2188 4044 
L 1331 1722 
L 3047 1722 
L 2188 4044 
z
M 1831 4666 
L 2547 4666 
L 4325 0 
L 3669 0 
L 3244 1197 
L 1141 1197 
L 716 0 
L 50 0 
L 1831 4666 
z
" transform="scale(0.015625)"/>
     </defs>
     <use xlink:href="#DejaVuSans-6d"/>
     <use xlink:href="#DejaVuSans-61" x="97.412109"/>
     <use xlink:href="#DejaVuSans-74" x="158.691406"/>
     <use xlink:href="#DejaVuSans-63" x="197.900391"/>
     <use xlink:href="#DejaVuSans-68" x="252.880859"/>
     <use xlink:href="#DejaVuSans-20" x="316.259766"/>
     <use xlink:href="#DejaVuSans-3d" x="348.046875"/>
     <use xlink:href="#DejaVuSans-20" x="431.835938"/>
     <use xlink:href="#DejaVuSans-44" x="463.623047"/>
     <use xlink:href="#DejaVuSans-47" x="540.625"/>
     <use xlink:href="#DejaVuSans-43" x="618.115234"/>
     <use xlink:href="#DejaVuSans-41" x="687.939453"/>
     <use xlink:href="#DejaVuSans-31" x="756.347656"/>
    </g>
   </g>
  </g>
  <g id="legend_1">
   <g id="text_44">
    <!-- match -->
    <g transform="translate(362.444712 192.579531) scale(0.1 -0.1)">
     <use xlink:href="#DejaVuSans-6d"/>
     <use xlink:href="#DejaVuSans-61" x="97.412109"/>
     <use xlink:href="#DejaVuSans-74" x="158.691406"/>
     <use xlink:href="#DejaVuSans-63" x="197.900391"/>
     <use xlink:href="#DejaVuSans-68" x="252.880859"/>
    </g>
   </g>
   <g id="line2d_52">
    <path d="M 346.440025 203.757656 
L 356.440025 203.757656 
L 366.440025 203.757656 
" style="fill: none; stroke: #2ca02c; stroke-width: 1.5; stroke-linecap: square"/>
   </g>
   <g id="text_45">
    <!-- M2M3 -->
    <g transform="translate(374.440025 207.257656) scale(0.1 -0.1)">
     <use xlink:href="#DejaVuSans-4d"/>
     <use xlink:href="#DejaVuSans-32" x="86.279297"/>
     <use xlink:href="#DejaVuSans-4d" x="149.902344"/>
     <use xlink:href="#DejaVuSans-33" x="236.181641"/>
    </g>
   </g>
   <g id="line2d_53">
    <path d="M 346.440025 218.435781 
L 356.440025 218.435781 
L 366.440025 218.435781 
" style="fill: none; stroke: #ff7f0e; stroke-width: 1.5; stroke-linecap: square"/>
   </g>
   <g id="text_46">
    <!-- M2MO -->
    <g transform="translate(374.440025 221.935781) scale(0.1 -0.1)">
     <use xlink:href="#DejaVuSans-4d"/>
     <use xlink:href="#DejaVuSans-32" x="86.279297"/>
     <use xlink:href="#DejaVuSans-4d" x="149.902344"/>
     <use xlink:href="#DejaVuSans-4f" x="236.181641"/>
    </g>
   </g>
   <g id="line2d_54">
    <path d="M 346.440025 233.113906 
L 356.440025 233.113906 
L 366.440025 233.113906 
" style="fill: none; stroke: #1f77b4; stroke-width: 1.5; stroke-linecap: square"/>
   </g>
   <g id="text_47">
    <!-- DGCA1 -->
    <g transform="translate(374.440025 236.613906) scale(0.1 -0.1)">
     <use xlink:href="#DejaVuSans-44"/>
     <use xlink:href="#DejaVuSans-47" x="77.001953"/>
     <use xlink:href="#DejaVuSans-43" x="154.492188"/>
     <use xlink:href="#DejaVuSans-41" x="224.316406"/>
     <use xlink:href="#DejaVuSans-31" x="292.724609"/>
    </g>
   </g>
  </g>
 </g>
 <defs>
  <clipPath id="p2e35b78b57">
   <rect x="50.14375" y="20.798437" width="290.68335" height="93.906667"/>
  </clipPath>
  <clipPath id="pe3e803f713">
   <rect x="50.14375" y="156.505104" width="290.68335" height="93.906667"/>
  </clipPath>
  <clipPath id="p28e6d70df4">
   <rect x="50.14375" y="292.211771" width="290.68335" height="93.906667"/>
  </clipPath>
 </defs>
</svg>
